<!DOCTYPE svg PUBLIC "-//W3C//DTD SVG 1.1//EN" "http://www.w3.org/Graphics/SVG/1.1/DTD/svg11.dtd" [
	<!ENTITY ns_flows "http://ns.adobe.com/Flows/1.0/">
]>
<svg xmlns="http://www.w3.org/2000/svg" width="166" height="9" viewBox="-0.185 -0.599 166 9" overflow="visible" enable-background="new -0.185 -0.599 166 9"><defs><pattern x="-138.185" y="15.401" width="69" height="69" patternUnits="userSpaceOnUse" viewBox="2.125 -70.896 69 69" overflow="visible"><path fill="none" d="M71.125-1.896h-69v-69h69z"/><path fill="#F7BC60" d="M71.125-1.896h-69v-69h69z"/><g fill="#fff"><path d="M61.772-71.653c.018.072.007.127-.026.19-.053.1-.112.062-.165.128-.05.062-.098.276-.078.362-.17.058-.01.227-.015.35-.002.05-.04.105-.045.16-.01.12.017.267.068.37.097.2.268.414.435.545.19.148.365.572.608.63.177.043.384-.103.543-.142.18-.043.397.01.57-.053.223-.08.128-.337.29-.45.103-.074.286-.01.405-.05.2-.07.34-.264.377-.46.016-.083.01-.146.04-.222.038-.103.11-.16.09-.293-.01-.062-.053-.12-.065-.187-.022-.114.002-.224 0-.337-.003-.2.017-.38-.078-.55-.38-.688-1.236-.93-1.975-.79-.18.035-.288.127-.443.208-.17.088-.14.166-.318.224-.082.026-.217.124-.216.224 0 .115.005.05.012.17-.02.01-.02-.006-.03-.026M54.105-71.653c.018.072.007.127-.026.19-.054.1-.113.062-.166.128-.05.062-.1.276-.08.362-.168.058-.01.227-.014.35-.002.05-.04.105-.045.16-.01.12.017.267.068.37.097.2.268.414.435.545.19.148.365.572.608.63.177.043.384-.103.543-.142.18-.043.396.01.57-.053.222-.08.127-.337.288-.45.104-.074.287-.01.406-.05.2-.07.34-.264.376-.46.016-.083.01-.146.04-.222.038-.103.11-.16.09-.293-.01-.062-.053-.12-.065-.187-.022-.114.002-.224 0-.337-.003-.2.017-.38-.078-.55-.38-.688-1.236-.93-1.975-.79-.18.035-.287.127-.442.208-.17.088-.14.166-.318.224-.08.026-.216.124-.215.224 0 .115.005.05.012.17-.022.01-.022-.006-.03-.026M46.44-71.653c.017.072.006.127-.027.19-.053.1-.112.062-.165.128-.05.062-.1.276-.08.362-.168.058-.01.227-.014.35-.002.05-.04.105-.045.16-.01.12.016.267.067.37.097.2.268.414.435.545.19.148.365.572.608.63.177.043.384-.103.543-.142.18-.043.397.01.57-.053.223-.08.128-.337.29-.45.103-.074.286-.01.405-.05.2-.07.34-.264.376-.46.016-.083.01-.146.04-.222.038-.103.11-.16.09-.293-.01-.062-.053-.12-.065-.187-.023-.114 0-.224 0-.337-.004-.2.016-.38-.08-.55-.38-.688-1.235-.93-1.974-.79-.18.035-.287.127-.442.208-.17.088-.14.166-.318.224-.08.026-.216.124-.215.224.002.115.006.05.013.17-.02.01-.02-.006-.03-.026M38.772-71.653c.018.072.007.127-.026.19-.053.1-.112.062-.165.128-.05.062-.098.276-.078.362-.17.058-.01.227-.015.35-.002.05-.04.105-.045.16-.01.12.017.267.068.37.097.2.268.414.435.545.19.148.365.572.608.63.177.043.384-.103.543-.142.18-.043.397.01.57-.053.223-.08.128-.337.29-.45.103-.074.286-.01.405-.05.2-.07.34-.264.377-.46.016-.083.01-.146.04-.222.038-.103.11-.16.09-.293-.01-.062-.053-.12-.065-.187-.022-.114.002-.224 0-.337-.003-.2.017-.38-.078-.55-.38-.688-1.236-.93-1.975-.79-.18.035-.288.127-.443.208-.17.088-.14.166-.318.224-.082.026-.217.124-.216.224 0 .115.005.05.012.17-.02.01-.02-.006-.03-.026M31.105-71.653c.018.072.007.127-.026.19-.054.1-.113.062-.166.128-.05.062-.1.276-.08.362-.168.058-.01.227-.014.35-.002.05-.04.105-.045.16-.01.12.017.267.068.37.097.2.268.414.435.545.19.148.365.572.608.63.177.043.384-.103.543-.142.18-.043.396.01.57-.053.222-.08.127-.337.288-.45.104-.074.287-.01.406-.05.2-.07.34-.264.376-.46.016-.083.01-.146.04-.222.038-.103.11-.16.09-.293-.01-.062-.053-.12-.065-.187-.022-.114.002-.224 0-.337-.003-.2.017-.38-.078-.55-.38-.688-1.236-.93-1.975-.79-.18.035-.287.127-.442.208-.17.088-.14.166-.318.224-.08.026-.216.124-.215.224 0 .115.005.05.012.17-.022.01-.022-.006-.03-.026M23.44-71.653c.017.072.006.127-.027.19-.053.1-.112.062-.165.128-.05.062-.1.276-.08.362-.168.058-.01.227-.014.35-.002.05-.04.105-.045.16-.01.12.016.267.067.37.097.2.268.414.435.545.19.148.365.572.608.63.177.043.384-.103.543-.142.18-.043.397.01.57-.053.223-.08.128-.337.29-.45.103-.074.286-.01.405-.05.2-.07.34-.264.376-.46.016-.083.01-.146.04-.222.038-.103.11-.16.09-.293-.01-.062-.053-.12-.065-.187-.023-.114 0-.224 0-.337-.004-.2.016-.38-.08-.55-.38-.688-1.235-.93-1.974-.79-.18.035-.287.127-.442.208-.17.088-.14.166-.318.224-.08.026-.216.124-.215.224.002.115.006.05.013.17-.02.01-.02-.006-.03-.026M15.772-71.653c.018.072.007.127-.026.19-.053.1-.112.062-.165.128-.05.062-.098.276-.078.362-.17.058-.01.227-.015.35-.002.05-.04.105-.045.16-.01.12.017.267.068.37.097.2.268.414.435.545.19.148.365.572.608.63.177.043.384-.103.543-.142.18-.043.397.01.57-.053.223-.08.128-.337.29-.45.103-.074.286-.01.405-.05.2-.07.34-.264.377-.46.016-.083.01-.146.04-.222.038-.103.11-.16.09-.293-.01-.062-.053-.12-.065-.187-.022-.114.002-.224 0-.337-.003-.2.017-.38-.078-.55-.38-.688-1.236-.93-1.975-.79-.18.035-.288.127-.443.208-.17.088-.14.166-.318.224-.082.026-.217.124-.216.224 0 .115.005.05.012.17-.02.01-.02-.006-.03-.026M8.105-71.653c.018.072.007.127-.026.19-.054.1-.113.062-.166.128-.05.062-.1.276-.08.362-.168.058-.01.227-.014.35-.002.05-.04.105-.045.16-.01.12.017.267.068.37.097.2.268.414.435.545.19.148.365.572.608.63.177.043.384-.103.543-.142.18-.043.396.01.57-.053.222-.08.127-.337.288-.45.104-.074.287-.01.406-.05.2-.07.34-.264.376-.46.016-.083.01-.146.04-.222.038-.103.11-.16.09-.293-.01-.062-.053-.12-.065-.187-.022-.114.002-.224 0-.337-.003-.2.017-.38-.078-.55-.38-.688-1.236-.93-1.975-.79-.18.035-.287.127-.442.208-.17.088-.14.166-.318.224-.08.026-.216.124-.215.224 0 .115.005.05.012.17-.022.01-.022-.006-.03-.026M.44-71.653c.017.072.007.127-.027.19-.052.1-.113.063-.165.128-.05.062-.1.276-.08.362-.168.058-.01.227-.014.35-.002.05-.04.105-.045.16-.01.12.016.267.067.37.097.2.268.414.435.545.19.148.365.572.608.63.177.043.384-.103.543-.142.18-.043.397.01.57-.053.223-.08.128-.337.29-.45.103-.074.286-.01.405-.05.2-.07.34-.264.376-.46.016-.083.01-.146.04-.222.037-.103.11-.16.09-.293-.01-.062-.052-.12-.065-.187-.022-.114 0-.224 0-.337-.004-.2.016-.38-.08-.55-.38-.688-1.235-.93-1.974-.79-.18.035-.287.127-.442.208-.17.088-.14.166-.318.224-.08.026-.215.124-.215.224.003.115.006.05.013.17-.02.01-.02-.006-.03-.026"/></g><path fill="#fff" d="M69.44-71.653c.017.072.007.127-.027.19-.052.1-.113.062-.165.128-.05.062-.1.276-.08.362-.168.058-.01.227-.014.35-.002.05-.04.105-.045.16-.01.12.016.267.067.37.097.2.268.414.435.545.19.148.365.572.608.63.177.043.384-.103.543-.142.18-.043.397.01.57-.053.223-.08.128-.337.29-.45.103-.074.286-.01.405-.05.2-.07.34-.264.376-.46.016-.083.01-.146.04-.222.037-.103.11-.16.09-.293-.01-.062-.052-.12-.065-.187-.022-.114 0-.224 0-.337-.004-.2.016-.38-.08-.55-.38-.688-1.235-.93-1.974-.79-.18.035-.287.127-.442.208-.17.088-.14.166-.318.224-.08.026-.215.124-.215.224.003.115.006.05.013.17-.02.01-.02-.006-.03-.026M.495-71.653c.018.072.008.127-.026.19-.053.1-.114.062-.166.128-.05.062-.1.276-.08.362-.168.058-.01.227-.014.35-.002.05-.04.105-.045.16-.01.12.017.267.068.37.097.2.268.414.435.545.19.148.365.572.608.63.177.043.384-.103.543-.142.18-.043.396.01.57-.053.222-.08.127-.337.288-.45.104-.074.287-.01.406-.05.2-.07.34-.264.376-.46.016-.083.01-.146.04-.222.037-.103.11-.16.09-.293-.01-.062-.052-.12-.065-.187-.02-.114.002-.224 0-.337-.003-.2.017-.38-.078-.55-.38-.688-1.236-.93-1.975-.79-.18.035-.287.127-.442.208-.17.088-.14.166-.318.224-.08.026-.215.124-.215.224.003.116.006.052.013.17-.02.01-.02-.005-.03-.025"/><g fill="#fff"><path d="M69.44-64c.017.07.006.126-.027.19-.053.1-.112.06-.165.127-.05.062-.1.276-.08.362-.168.057-.01.226-.014.35-.002.05-.04.104-.045.16-.01.12.016.266.067.37.097.198.268.413.435.544.19.148.365.572.608.63.177.043.384-.103.543-.142.18-.043.397.01.57-.053.223-.08.128-.338.29-.45.103-.075.286-.01.405-.052.2-.07.34-.263.376-.46.016-.082.01-.145.04-.22.038-.104.11-.16.09-.294-.01-.062-.053-.12-.065-.187-.023-.114 0-.224 0-.337-.004-.2.016-.38-.08-.55-.38-.688-1.235-.93-1.974-.79-.18.035-.287.127-.442.208-.17.088-.14.166-.318.224-.08.026-.216.124-.215.224.002.115.006.05.013.17-.02.01-.02-.006-.03-.026M61.778-64c.018.07.007.126-.026.19-.053.1-.112.06-.165.127-.05.062-.1.276-.08.362-.168.057-.008.226-.014.35-.002.05-.04.104-.045.16-.01.12.017.266.068.37.097.198.268.413.435.544.19.148.366.572.61.63.176.043.383-.103.542-.142.18-.043.397.01.57-.053.223-.08.128-.338.29-.45.103-.075.286-.01.405-.052.2-.07.34-.263.376-.46.016-.082.01-.145.04-.22.038-.104.11-.16.09-.294-.01-.062-.053-.12-.065-.187-.022-.114.002-.224 0-.337-.003-.2.017-.38-.078-.55-.38-.688-1.236-.93-1.975-.79-.18.035-.287.127-.442.208-.17.088-.14.166-.318.224-.08.026-.216.124-.215.224 0 .115.005.05.012.17-.02.01-.02-.006-.03-.026M54.118-64c.018.07.007.126-.026.19-.053.1-.112.06-.165.127-.05.062-.1.276-.08.362-.168.057-.008.226-.014.35-.002.05-.04.104-.045.16-.01.12.017.266.068.37.097.198.268.413.435.544.19.148.366.572.61.63.176.043.383-.103.542-.142.18-.043.397.01.57-.053.223-.08.128-.338.29-.45.103-.075.286-.01.405-.052.2-.07.34-.263.376-.46.016-.082.01-.145.04-.22.038-.104.11-.16.09-.294-.01-.062-.053-.12-.065-.187-.022-.114.002-.224 0-.337-.003-.2.017-.38-.078-.55-.38-.688-1.236-.93-1.975-.79-.18.035-.287.127-.442.208-.17.088-.14.166-.318.224-.08.026-.216.124-.215.224 0 .115.005.05.012.17-.02.01-.02-.006-.03-.026M46.458-64c.018.07.007.126-.026.19-.053.1-.112.06-.165.127-.05.062-.1.276-.08.362-.168.057-.008.226-.014.35-.002.05-.04.104-.045.16-.01.12.017.266.068.37.097.198.268.413.435.544.19.148.366.572.61.63.176.043.383-.103.542-.142.18-.043.397.01.57-.053.223-.08.128-.338.29-.45.103-.075.286-.01.405-.052.2-.07.34-.263.376-.46.016-.082.01-.145.04-.22.038-.104.11-.16.09-.294-.01-.062-.053-.12-.065-.187-.022-.114.002-.224 0-.337-.003-.2.017-.38-.078-.55-.38-.688-1.236-.93-1.975-.79-.18.035-.287.127-.442.208-.17.088-.14.166-.318.224-.08.026-.216.124-.215.224 0 .115.005.05.012.17-.02.01-.02-.006-.03-.026M38.797-64c.018.07.007.126-.026.19-.052.1-.11.06-.164.127-.05.062-.1.276-.08.362-.168.057-.008.226-.014.35-.002.05-.04.104-.045.16-.01.12.017.266.068.37.097.198.268.413.435.544.19.148.365.572.608.63.177.043.384-.103.543-.142.18-.043.398.01.572-.053.222-.08.127-.338.288-.45.104-.075.287-.01.406-.052.2-.07.34-.263.376-.46.016-.082.01-.145.04-.22.038-.104.11-.16.09-.294-.01-.062-.053-.12-.065-.187-.022-.114.002-.224 0-.337-.003-.2.017-.38-.078-.55-.38-.688-1.237-.93-1.976-.79-.18.035-.287.127-.442.208-.17.088-.14.166-.318.224-.08.026-.216.124-.215.224 0 .115.004.05.01.17-.02.01-.02-.006-.03-.026M31.137-64c.018.07.007.126-.026.19-.052.1-.11.06-.164.127-.05.062-.1.276-.08.362-.168.057-.008.226-.014.35-.002.05-.04.104-.045.16-.01.12.017.266.068.37.097.198.268.413.435.544.19.148.365.572.608.63.177.043.384-.103.543-.142.18-.043.398.01.572-.053.222-.08.127-.338.288-.45.104-.075.287-.01.406-.052.2-.07.34-.263.376-.46.016-.082.01-.145.04-.22.038-.104.11-.16.09-.294-.01-.062-.053-.12-.065-.187-.022-.114.002-.224 0-.337-.003-.2.017-.38-.078-.55-.38-.688-1.237-.93-1.976-.79-.18.035-.287.127-.442.208-.17.088-.14.166-.318.224-.08.026-.216.124-.215.224 0 .115.004.05.01.17-.02.01-.02-.006-.03-.026M23.477-64c.018.07.007.126-.026.19-.052.1-.11.06-.164.127-.05.062-.1.276-.08.362-.168.057-.008.226-.014.35-.002.05-.04.104-.045.16-.01.12.017.266.068.37.097.198.268.413.435.544.19.148.365.572.608.63.177.043.384-.103.543-.142.18-.043.398.01.572-.053.222-.08.127-.338.288-.45.104-.075.287-.01.406-.052.2-.07.34-.263.376-.46.016-.082.01-.145.04-.22.038-.104.11-.16.09-.294-.01-.062-.053-.12-.065-.187-.022-.114.002-.224 0-.337-.003-.2.017-.38-.078-.55-.38-.688-1.237-.93-1.976-.79-.18.035-.287.127-.442.208-.17.088-.14.166-.318.224-.08.026-.216.124-.215.224 0 .115.004.05.01.17-.02.01-.02-.006-.03-.026M15.816-64c.018.07.007.126-.026.19-.053.1-.112.06-.165.127-.05.062-.1.276-.08.362-.168.057-.008.226-.014.35 0 .05-.04.104-.044.16-.01.12.017.266.068.37.097.198.268.413.435.544.19.148.364.572.607.63.177.043.384-.103.543-.142.18-.043.397.01.57-.053.223-.08.128-.338.29-.45.103-.075.286-.01.405-.052.2-.07.34-.263.376-.46.017-.082.01-.145.04-.22.04-.104.11-.16.09-.294-.01-.062-.052-.12-.064-.187-.022-.114.002-.224 0-.337-.003-.2.017-.38-.078-.55-.38-.688-1.236-.93-1.975-.79-.18.035-.287.127-.442.208-.17.088-.138.166-.317.224-.08.026-.216.124-.215.224 0 .115.005.05.012.17-.02.01-.02-.006-.03-.026M8.156-64c.018.07.007.126-.026.19-.053.1-.112.06-.165.127-.05.062-.1.276-.08.362-.168.057-.008.226-.014.35 0 .05-.04.104-.044.16-.01.12.017.266.068.37.097.198.268.413.435.544.19.148.364.572.607.63.177.043.384-.103.543-.142.18-.043.397.01.57-.053.223-.08.128-.338.29-.45.103-.075.286-.01.405-.052.2-.07.34-.263.376-.46.017-.082.01-.145.04-.22.04-.104.11-.16.09-.294-.01-.062-.052-.12-.064-.187-.022-.114.002-.224 0-.337-.003-.2.017-.38-.078-.55-.38-.688-1.236-.93-1.975-.79-.18.035-.287.127-.442.208-.17.088-.138.166-.317.224-.08.026-.216.124-.215.224 0 .115.005.05.012.17-.02.01-.02-.006-.03-.026M.495-64c.018.07.007.126-.026.19-.054.1-.113.06-.166.127-.05.062-.1.276-.08.362-.168.057-.01.226-.014.35-.002.05-.04.104-.045.16-.01.12.017.266.068.37.097.198.268.413.435.544.19.148.365.572.608.63.177.043.384-.103.543-.142.18-.042.397.01.57-.052.223-.08.128-.337.29-.45.103-.074.286-.01.405-.05.2-.07.34-.264.376-.46.017-.083.01-.146.04-.222.04-.103.11-.16.09-.293-.01-.062-.052-.12-.064-.187-.022-.114.002-.224 0-.337-.003-.2.017-.378-.078-.55-.38-.687-1.236-.928-1.975-.788-.18.034-.287.126-.442.207-.17.087-.138.165-.317.223-.08.026-.216.124-.215.224 0 .115.005.05.012.17-.02.01-.02-.006-.03-.026M69.44-56.348c.017.072.006.127-.027.19-.053.1-.112.062-.165.128-.05.062-.1.276-.08.362-.168.058-.01.227-.014.35-.002.05-.04.105-.045.16-.01.12.016.267.067.37.097.2.268.414.435.545.19.148.365.572.608.63.177.043.384-.103.543-.142.18-.043.397.01.57-.053.223-.08.128-.337.29-.45.103-.074.286-.01.405-.05.2-.07.34-.264.376-.46.016-.083.01-.146.04-.222.038-.103.11-.16.09-.293-.01-.062-.053-.12-.065-.187-.023-.114 0-.224 0-.337-.004-.2.016-.38-.08-.55-.38-.688-1.235-.93-1.974-.79-.18.035-.287.127-.442.208-.17.09-.14.167-.318.225-.08.026-.216.124-.215.224.002.114.006.05.013.168-.02.01-.02-.005-.03-.025M61.778-56.348c.018.072.007.127-.026.19-.053.1-.112.062-.165.128-.05.062-.1.276-.08.362-.168.058-.008.227-.014.35-.002.05-.04.105-.045.16-.01.12.017.267.068.37.097.2.268.414.435.545.19.148.366.572.61.63.176.043.383-.103.542-.142.18-.043.397.01.57-.053.223-.08.128-.337.29-.45.103-.074.286-.01.405-.05.2-.07.34-.264.376-.46.016-.083.01-.146.04-.222.038-.103.11-.16.09-.293-.01-.062-.053-.12-.065-.187-.022-.114.002-.224 0-.337-.003-.2.017-.38-.078-.55-.38-.688-1.236-.93-1.975-.79-.18.035-.287.127-.442.208-.17.09-.14.167-.318.225-.08.026-.216.124-.215.224 0 .114.005.05.012.168-.02.01-.02-.005-.03-.025M54.118-56.348c.018.072.007.127-.026.19-.053.1-.112.062-.165.128-.05.062-.1.276-.08.362-.168.058-.008.227-.014.35-.002.05-.04.105-.045.16-.01.12.017.267.068.37.097.2.268.414.435.545.19.148.366.572.61.63.176.043.383-.103.542-.142.18-.043.397.01.57-.053.223-.08.128-.337.29-.45.103-.074.286-.01.405-.05.2-.07.34-.264.376-.46.016-.083.01-.146.04-.222.038-.103.11-.16.09-.293-.01-.062-.053-.12-.065-.187-.022-.114.002-.224 0-.337-.003-.2.017-.38-.078-.55-.38-.688-1.236-.93-1.975-.79-.18.035-.287.127-.442.208-.17.09-.14.167-.318.225-.08.026-.216.124-.215.224 0 .114.005.05.012.168-.02.01-.02-.005-.03-.025M46.458-56.348c.018.072.007.127-.026.19-.053.1-.112.062-.165.128-.05.062-.1.276-.08.362-.168.058-.008.227-.014.35-.002.05-.04.105-.045.16-.01.12.017.267.068.37.097.2.268.414.435.545.19.148.366.572.61.63.176.043.383-.103.542-.142.18-.043.397.01.57-.053.223-.08.128-.337.29-.45.103-.074.286-.01.405-.05.2-.07.34-.264.376-.46.016-.083.01-.146.04-.222.038-.103.11-.16.09-.293-.01-.062-.053-.12-.065-.187-.022-.114.002-.224 0-.337-.003-.2.017-.38-.078-.55-.38-.688-1.236-.93-1.975-.79-.18.035-.287.127-.442.208-.17.09-.14.167-.318.225-.08.026-.216.124-.215.224 0 .114.005.05.012.168-.02.01-.02-.005-.03-.025M38.797-56.348c.018.072.007.127-.026.19-.052.1-.11.062-.164.128-.05.062-.1.276-.08.362-.168.058-.008.227-.014.35-.002.05-.04.105-.045.16-.01.12.017.267.068.37.097.2.268.414.435.545.19.148.365.572.608.63.177.043.384-.103.543-.142.18-.043.398.01.572-.053.222-.08.127-.337.288-.45.104-.074.287-.01.406-.05.2-.07.34-.264.376-.46.016-.083.01-.146.04-.222.038-.103.11-.16.09-.293-.01-.062-.053-.12-.065-.187-.022-.114.002-.224 0-.337-.003-.2.017-.38-.078-.55-.38-.688-1.237-.93-1.976-.79-.18.035-.287.127-.442.208-.17.09-.14.167-.318.225-.08.026-.216.124-.215.224 0 .114.004.05.01.168-.02.01-.02-.005-.03-.025M31.137-56.348c.018.072.007.127-.026.19-.052.1-.11.062-.164.128-.05.062-.1.276-.08.362-.168.058-.008.227-.014.35-.002.05-.04.105-.045.16-.01.12.017.267.068.37.097.2.268.414.435.545.19.148.365.572.608.63.177.043.384-.103.543-.142.18-.043.398.01.572-.053.222-.08.127-.337.288-.45.104-.074.287-.01.406-.05.2-.07.34-.264.376-.46.016-.083.01-.146.04-.222.038-.103.11-.16.09-.293-.01-.062-.053-.12-.065-.187-.022-.114.002-.224 0-.337-.003-.2.017-.38-.078-.55-.38-.688-1.237-.93-1.976-.79-.18.035-.287.127-.442.208-.17.09-.14.167-.318.225-.08.026-.216.124-.215.224 0 .114.004.05.01.168-.02.01-.02-.005-.03-.025M23.477-56.348c.018.072.007.127-.026.19-.052.1-.11.062-.164.128-.05.062-.1.276-.08.362-.168.058-.008.227-.014.35-.002.05-.04.105-.045.16-.01.12.017.267.068.37.097.2.268.414.435.545.19.148.365.572.608.63.177.043.384-.103.543-.142.18-.043.398.01.572-.053.222-.08.127-.337.288-.45.104-.074.287-.01.406-.05.2-.07.34-.264.376-.46.016-.083.01-.146.04-.222.038-.103.11-.16.09-.293-.01-.062-.053-.12-.065-.187-.022-.114.002-.224 0-.337-.003-.2.017-.38-.078-.55-.38-.688-1.237-.93-1.976-.79-.18.035-.287.127-.442.208-.17.09-.14.167-.318.225-.08.026-.216.124-.215.224 0 .114.004.05.01.168-.02.01-.02-.005-.03-.025M15.816-56.348c.018.072.007.127-.026.19-.053.1-.112.062-.165.128-.05.062-.1.276-.08.362-.168.058-.008.227-.014.35 0 .05-.04.105-.044.16-.01.12.017.267.068.37.097.2.268.414.435.545.19.148.364.572.607.63.177.043.384-.103.543-.142.18-.043.397.01.57-.053.223-.08.128-.337.29-.45.103-.074.286-.01.405-.05.2-.07.34-.264.376-.46.017-.083.01-.146.04-.222.04-.103.11-.16.09-.293-.01-.062-.052-.12-.064-.187-.022-.114.002-.224 0-.337-.003-.2.017-.38-.078-.55-.38-.688-1.236-.93-1.975-.79-.18.035-.287.127-.442.208-.17.09-.138.167-.317.225-.08.026-.216.124-.215.224 0 .114.005.05.012.168-.02.01-.02-.005-.03-.025M8.156-56.348c.018.072.007.127-.026.19-.053.1-.112.062-.165.128-.05.062-.1.276-.08.362-.168.058-.008.227-.014.35 0 .05-.04.105-.044.16-.01.12.017.267.068.37.097.2.268.414.435.545.19.148.364.572.607.63.177.043.384-.103.543-.142.18-.043.397.01.57-.053.223-.08.128-.337.29-.45.103-.074.286-.01.405-.05.2-.07.34-.264.376-.46.017-.083.01-.146.04-.222.04-.103.11-.16.09-.293-.01-.062-.052-.12-.064-.187-.022-.114.002-.224 0-.337-.003-.2.017-.38-.078-.55-.38-.688-1.236-.93-1.975-.79-.18.035-.287.127-.442.208-.17.09-.138.167-.317.225-.08.026-.216.124-.215.224 0 .114.005.05.012.168-.02.01-.02-.005-.03-.025M.495-56.348c.018.072.007.127-.026.19-.054.1-.113.062-.166.128-.05.062-.1.276-.08.362-.168.058-.01.227-.014.35-.002.05-.04.105-.045.16-.01.12.017.267.068.37.097.2.268.414.435.545.19.148.365.572.608.63.177.043.384-.103.543-.142.18-.043.396.01.57-.053.222-.08.127-.337.288-.45.104-.074.287-.01.406-.05.2-.07.34-.264.376-.46.016-.083.01-.146.04-.222.038-.103.11-.16.09-.293-.01-.062-.053-.12-.065-.187-.022-.114.002-.224 0-.337-.003-.2.017-.38-.078-.55-.38-.688-1.236-.93-1.975-.79-.18.035-.287.127-.442.208-.17.09-.14.167-.318.225-.08.026-.216.124-.215.224.003.116.006.052.013.17-.02.01-.02-.005-.03-.025M69.44-48.695c.017.072.006.127-.027.19-.053.1-.112.062-.165.128-.05.062-.1.276-.08.362-.168.058-.01.227-.014.35-.002.05-.04.105-.045.16-.01.12.016.267.067.37.097.2.268.414.435.545.19.148.365.572.608.63.177.043.384-.103.543-.142.18-.043.397.01.57-.053.223-.08.128-.337.29-.45.103-.074.286-.01.405-.05.2-.07.34-.264.376-.46.016-.083.01-.146.04-.222.038-.103.11-.16.09-.293-.01-.062-.053-.12-.065-.187-.023-.114 0-.224 0-.337-.004-.2.016-.38-.08-.55-.38-.688-1.235-.93-1.974-.79-.18.035-.287.127-.442.208-.17.088-.14.166-.318.224-.08.026-.216.124-.215.224.002.115.006.05.013.17-.02.01-.02-.006-.03-.026M61.778-48.695c.018.072.007.127-.026.19-.053.1-.112.062-.165.128-.05.062-.1.276-.08.362-.168.058-.008.227-.014.35-.002.05-.04.105-.045.16-.01.12.017.267.068.37.097.2.268.414.435.545.19.148.366.572.61.63.176.043.383-.103.542-.142.18-.043.397.01.57-.053.223-.08.128-.337.29-.45.103-.074.286-.01.405-.05.2-.07.34-.264.376-.46.016-.083.01-.146.04-.222.038-.103.11-.16.09-.293-.01-.062-.053-.12-.065-.187-.022-.114.002-.224 0-.337-.003-.2.017-.38-.078-.55-.38-.688-1.236-.93-1.975-.79-.18.035-.287.127-.442.208-.17.088-.14.166-.318.224-.08.026-.216.124-.215.224 0 .115.005.05.012.17-.02.01-.02-.006-.03-.026M54.118-48.695c.018.072.007.127-.026.19-.053.1-.112.062-.165.128-.05.062-.1.276-.08.362-.168.058-.008.227-.014.35-.002.05-.04.105-.045.16-.01.12.017.267.068.37.097.2.268.414.435.545.19.148.366.572.61.63.176.043.383-.103.542-.142.18-.043.397.01.57-.053.223-.08.128-.337.29-.45.103-.074.286-.01.405-.05.2-.07.34-.264.376-.46.016-.083.01-.146.04-.222.038-.103.11-.16.09-.293-.01-.062-.053-.12-.065-.187-.022-.114.002-.224 0-.337-.003-.2.017-.38-.078-.55-.38-.688-1.236-.93-1.975-.79-.18.035-.287.127-.442.208-.17.088-.14.166-.318.224-.08.026-.216.124-.215.224 0 .115.005.05.012.17-.02.01-.02-.006-.03-.026M46.458-48.695c.018.072.007.127-.026.19-.053.1-.112.062-.165.128-.05.062-.1.276-.08.362-.168.058-.008.227-.014.35-.002.05-.04.105-.045.16-.01.12.017.267.068.37.097.2.268.414.435.545.19.148.366.572.61.63.176.043.383-.103.542-.142.18-.043.397.01.57-.053.223-.08.128-.337.29-.45.103-.074.286-.01.405-.05.2-.07.34-.264.376-.46.016-.083.01-.146.04-.222.038-.103.11-.16.09-.293-.01-.062-.053-.12-.065-.187-.022-.114.002-.224 0-.337-.003-.2.017-.38-.078-.55-.38-.688-1.236-.93-1.975-.79-.18.035-.287.127-.442.208-.17.088-.14.166-.318.224-.08.026-.216.124-.215.224 0 .115.005.05.012.17-.02.01-.02-.006-.03-.026M38.797-48.695c.018.072.007.127-.026.19-.052.1-.11.062-.164.128-.05.062-.1.276-.08.362-.168.058-.008.227-.014.35-.002.05-.04.105-.045.16-.01.12.017.267.068.37.097.2.268.414.435.545.19.148.365.572.608.63.177.043.384-.103.543-.142.18-.043.398.01.572-.053.222-.08.127-.337.288-.45.104-.074.287-.01.406-.05.2-.07.34-.264.376-.46.016-.083.01-.146.04-.222.038-.103.11-.16.09-.293-.01-.062-.053-.12-.065-.187-.022-.114.002-.224 0-.337-.003-.2.017-.38-.078-.55-.38-.688-1.237-.93-1.976-.79-.18.035-.287.127-.442.208-.17.088-.14.166-.318.224-.08.026-.216.124-.215.224 0 .115.004.05.01.17-.02.01-.02-.006-.03-.026M31.137-48.695c.018.072.007.127-.026.19-.052.1-.11.062-.164.128-.05.062-.1.276-.08.362-.168.058-.008.227-.014.35-.002.05-.04.105-.045.16-.01.12.017.267.068.37.097.2.268.414.435.545.19.148.365.572.608.63.177.043.384-.103.543-.142.18-.043.398.01.572-.053.222-.08.127-.337.288-.45.104-.074.287-.01.406-.05.2-.07.34-.264.376-.46.016-.083.01-.146.04-.222.038-.103.11-.16.09-.293-.01-.062-.053-.12-.065-.187-.022-.114.002-.224 0-.337-.003-.2.017-.38-.078-.55-.38-.688-1.237-.93-1.976-.79-.18.035-.287.127-.442.208-.17.088-.14.166-.318.224-.08.026-.216.124-.215.224 0 .115.004.05.01.17-.02.01-.02-.006-.03-.026M23.477-48.695c.018.072.007.127-.026.19-.052.1-.11.062-.164.128-.05.062-.1.276-.08.362-.168.058-.008.227-.014.35-.002.05-.04.105-.045.16-.01.12.017.267.068.37.097.2.268.414.435.545.19.148.365.572.608.63.177.043.384-.103.543-.142.18-.043.398.01.572-.053.222-.08.127-.337.288-.45.104-.074.287-.01.406-.05.2-.07.34-.264.376-.46.016-.083.01-.146.04-.222.038-.103.11-.16.09-.293-.01-.062-.053-.12-.065-.187-.022-.114.002-.224 0-.337-.003-.2.017-.38-.078-.55-.38-.688-1.237-.93-1.976-.79-.18.035-.287.127-.442.208-.17.088-.14.166-.318.224-.08.026-.216.124-.215.224 0 .115.004.05.01.17-.02.01-.02-.006-.03-.026M15.816-48.695c.018.072.007.127-.026.19-.053.1-.112.062-.165.128-.05.062-.1.276-.08.362-.168.058-.008.227-.014.35 0 .05-.04.105-.044.16-.01.12.017.267.068.37.097.2.268.414.435.545.19.148.364.572.607.63.177.043.384-.103.543-.142.18-.043.397.01.57-.053.223-.08.128-.337.29-.45.103-.074.286-.01.405-.05.2-.07.34-.264.376-.46.017-.083.01-.146.04-.222.04-.103.11-.16.09-.293-.01-.062-.052-.12-.064-.187-.022-.114.002-.224 0-.337-.003-.2.017-.38-.078-.55-.38-.688-1.236-.93-1.975-.79-.18.035-.287.127-.442.208-.17.088-.138.166-.317.224-.08.026-.216.124-.215.224 0 .115.005.05.012.17-.02.01-.02-.006-.03-.026M8.156-48.695c.018.072.007.127-.026.19-.053.1-.112.062-.165.128-.05.062-.1.276-.08.362-.168.058-.008.227-.014.35 0 .05-.04.105-.044.16-.01.12.017.267.068.37.097.2.268.414.435.545.19.148.364.572.607.63.177.043.384-.103.543-.142.18-.043.397.01.57-.053.223-.08.128-.337.29-.45.103-.074.286-.01.405-.05.2-.07.34-.264.376-.46.017-.083.01-.146.04-.222.04-.103.11-.16.09-.293-.01-.062-.052-.12-.064-.187-.022-.114.002-.224 0-.337-.003-.2.017-.38-.078-.55-.38-.688-1.236-.93-1.975-.79-.18.035-.287.127-.442.208-.17.088-.138.166-.317.224-.08.026-.216.124-.215.224 0 .115.005.05.012.17-.02.01-.02-.006-.03-.026M.495-48.695c.018.072.007.127-.026.19-.054.1-.113.062-.166.128-.05.062-.1.276-.08.362-.168.058-.01.227-.014.35-.002.05-.04.105-.045.16-.01.12.017.267.068.37.097.2.268.414.435.545.19.148.365.572.608.63.177.043.384-.103.543-.142.18-.043.396.01.57-.053.222-.08.127-.337.288-.45.104-.074.287-.01.406-.05.2-.07.34-.264.376-.46.016-.083.01-.146.04-.222.038-.103.11-.16.09-.293-.01-.062-.053-.12-.065-.187-.022-.114.002-.224 0-.337-.003-.2.017-.38-.078-.55-.38-.688-1.236-.93-1.975-.79-.18.035-.287.127-.442.208-.17.088-.14.166-.318.224-.08.026-.216.124-.215.224 0 .115.005.05.012.17-.022.01-.022-.006-.03-.026M69.44-41.042c.017.072.006.127-.027.19-.053.1-.112.062-.165.128-.05.062-.1.276-.08.362-.168.058-.01.227-.014.35-.002.05-.04.105-.045.16-.01.12.016.267.067.37.097.2.268.414.435.545.19.148.365.572.608.63.177.043.384-.103.543-.142.18-.042.397.01.57-.052.223-.08.128-.337.29-.45.103-.074.286-.01.405-.05.2-.07.34-.264.376-.46.016-.083.01-.146.04-.222.038-.103.11-.16.09-.293-.01-.062-.053-.12-.065-.187-.023-.114 0-.224 0-.337-.004-.2.016-.38-.08-.55-.38-.69-1.235-.93-1.974-.79-.18.034-.287.126-.442.207-.17.088-.14.166-.318.224-.08.027-.216.125-.215.225.002.115.006.05.013.17-.02.01-.02-.006-.03-.026M61.778-41.042c.018.072.007.127-.026.19-.053.1-.112.062-.165.128-.05.062-.1.276-.08.362-.168.058-.008.227-.014.35-.002.05-.04.105-.045.16-.01.12.017.267.068.37.097.2.268.414.435.545.19.148.366.572.61.63.176.043.383-.103.542-.142.18-.042.397.01.57-.052.223-.08.128-.337.29-.45.103-.074.286-.01.405-.05.2-.07.34-.264.376-.46.016-.083.01-.146.04-.222.038-.103.11-.16.09-.293-.01-.062-.053-.12-.065-.187-.022-.114.002-.224 0-.337-.003-.2.017-.38-.078-.55-.38-.69-1.236-.93-1.975-.79-.18.034-.287.126-.442.207-.17.088-.14.166-.318.224-.08.027-.216.125-.215.225 0 .115.005.05.012.17-.02.01-.02-.006-.03-.026M54.118-41.042c.018.072.007.127-.026.19-.053.1-.112.062-.165.128-.05.062-.1.276-.08.362-.168.058-.008.227-.014.35-.002.05-.04.105-.045.16-.01.12.017.267.068.37.097.2.268.414.435.545.19.148.366.572.61.63.176.043.383-.103.542-.142.18-.042.397.01.57-.052.223-.08.128-.337.29-.45.103-.074.286-.01.405-.05.2-.07.34-.264.376-.46.016-.083.01-.146.04-.222.038-.103.11-.16.09-.293-.01-.062-.053-.12-.065-.187-.022-.114.002-.224 0-.337-.003-.2.017-.38-.078-.55-.38-.69-1.236-.93-1.975-.79-.18.034-.287.126-.442.207-.17.088-.14.166-.318.224-.08.027-.216.125-.215.225 0 .115.005.05.012.17-.02.01-.02-.006-.03-.026M46.458-41.042c.018.072.007.127-.026.19-.053.1-.112.062-.165.128-.05.062-.1.276-.08.362-.168.058-.008.227-.014.35-.002.05-.04.105-.045.16-.01.12.017.267.068.37.097.2.268.414.435.545.19.148.366.572.61.63.176.043.383-.103.542-.142.18-.042.397.01.57-.052.223-.08.128-.337.29-.45.103-.074.286-.01.405-.05.2-.07.34-.264.376-.46.016-.083.01-.146.04-.222.038-.103.11-.16.09-.293-.01-.062-.053-.12-.065-.187-.022-.114.002-.224 0-.337-.003-.2.017-.38-.078-.55-.38-.69-1.236-.93-1.975-.79-.18.034-.287.126-.442.207-.17.088-.14.166-.318.224-.08.027-.216.125-.215.225 0 .115.005.05.012.17-.02.01-.02-.006-.03-.026M38.797-41.042c.018.072.007.127-.026.19-.052.1-.11.062-.164.128-.05.062-.1.276-.08.362-.168.058-.008.227-.014.35-.002.05-.04.105-.045.16-.01.12.017.267.068.37.097.2.268.414.435.545.19.148.365.572.608.63.177.043.384-.103.543-.142.18-.042.398.01.572-.052.222-.08.127-.337.288-.45.104-.074.287-.01.406-.05.2-.07.34-.264.376-.46.016-.083.01-.146.04-.222.038-.103.11-.16.09-.293-.01-.062-.053-.12-.065-.187-.022-.114.002-.224 0-.337-.003-.2.017-.38-.078-.55-.38-.69-1.237-.93-1.976-.79-.18.034-.287.126-.442.207-.17.088-.14.166-.318.224-.08.027-.216.125-.215.225 0 .115.004.05.01.17-.02.01-.02-.006-.03-.026M31.137-41.042c.018.072.007.127-.026.19-.052.1-.11.062-.164.128-.05.062-.1.276-.08.362-.168.058-.008.227-.014.35-.002.05-.04.105-.045.16-.01.12.017.267.068.37.097.2.268.414.435.545.19.148.365.572.608.63.177.043.384-.103.543-.142.18-.042.398.01.572-.052.222-.08.127-.337.288-.45.104-.074.287-.01.406-.05.2-.07.34-.264.376-.46.016-.083.01-.146.04-.222.038-.103.11-.16.09-.293-.01-.062-.053-.12-.065-.187-.022-.114.002-.224 0-.337-.003-.2.017-.38-.078-.55-.38-.69-1.237-.93-1.976-.79-.18.034-.287.126-.442.207-.17.088-.14.166-.318.224-.08.027-.216.125-.215.225 0 .115.004.05.01.17-.02.01-.02-.006-.03-.026M23.477-41.042c.018.072.007.127-.026.19-.052.1-.11.062-.164.128-.05.062-.1.276-.08.362-.168.058-.008.227-.014.35-.002.05-.04.105-.045.16-.01.12.017.267.068.37.097.2.268.414.435.545.19.148.365.572.608.63.177.043.384-.103.543-.142.18-.042.398.01.572-.052.222-.08.127-.337.288-.45.104-.074.287-.01.406-.05.2-.07.34-.264.376-.46.016-.083.01-.146.04-.222.038-.103.11-.16.09-.293-.01-.062-.053-.12-.065-.187-.022-.114.002-.224 0-.337-.003-.2.017-.38-.078-.55-.38-.69-1.237-.93-1.976-.79-.18.034-.287.126-.442.207-.17.088-.14.166-.318.224-.08.027-.216.125-.215.225 0 .115.004.05.01.17-.02.01-.02-.006-.03-.026M15.816-41.042c.018.072.007.127-.026.19-.053.1-.112.062-.165.128-.05.062-.1.276-.08.362-.168.058-.008.227-.014.35 0 .05-.04.105-.044.16-.01.12.017.267.068.37.097.2.268.414.435.545.19.148.364.572.607.63.177.043.384-.103.543-.142.18-.042.397.01.57-.052.223-.08.128-.337.29-.45.103-.074.286-.01.405-.05.2-.07.34-.264.376-.46.017-.083.01-.146.04-.222.04-.103.11-.16.09-.293-.01-.062-.052-.12-.064-.187-.022-.114.002-.224 0-.337-.003-.2.017-.38-.078-.55-.38-.69-1.236-.93-1.975-.79-.18.034-.287.126-.442.207-.17.088-.138.166-.317.224-.08.027-.216.125-.215.225 0 .115.005.05.012.17-.02.01-.02-.006-.03-.026M8.156-41.042c.018.072.007.127-.026.19-.053.1-.112.062-.165.128-.05.062-.1.276-.08.362-.168.058-.008.227-.014.35 0 .05-.04.105-.044.16-.01.12.017.267.068.37.097.2.268.414.435.545.19.148.364.572.607.63.177.043.384-.103.543-.142.18-.042.397.01.57-.052.223-.08.128-.337.29-.45.103-.074.286-.01.405-.05.2-.07.34-.264.376-.46.017-.083.01-.146.04-.222.04-.103.11-.16.09-.293-.01-.062-.052-.12-.064-.187-.022-.114.002-.224 0-.337-.003-.2.017-.38-.078-.55-.38-.69-1.236-.93-1.975-.79-.18.034-.287.126-.442.207-.17.088-.138.166-.317.224-.08.027-.216.125-.215.225 0 .115.005.05.012.17-.02.01-.02-.005-.03-.025M.495-41.042c.018.072.007.127-.026.19-.054.1-.113.062-.166.128-.05.062-.1.276-.08.362-.168.058-.01.227-.014.35-.002.05-.04.105-.045.16-.01.12.017.267.068.37.097.2.268.414.435.545.19.148.365.572.608.63.177.043.384-.103.543-.142.18-.042.396.01.57-.052.222-.08.127-.337.288-.45.104-.074.287-.01.406-.05.2-.07.34-.264.376-.46.016-.083.01-.146.04-.222.038-.103.11-.16.09-.293-.01-.062-.053-.12-.065-.187-.022-.114.002-.224 0-.337-.003-.2.017-.38-.078-.55-.38-.69-1.236-.93-1.975-.79-.18.034-.287.126-.442.207-.17.088-.14.166-.318.224-.08.027-.216.125-.215.225 0 .115.005.05.012.17-.022.01-.022-.006-.03-.026M69.44-33.39c.017.072.006.127-.027.19-.053.1-.112.062-.165.128-.05.062-.1.276-.08.362-.168.058-.01.227-.014.35-.002.05-.04.105-.045.16-.01.12.016.267.067.37.097.2.268.414.435.545.19.148.365.572.608.63.177.043.384-.103.543-.142.18-.043.397.01.57-.053.223-.08.128-.337.29-.45.103-.074.286-.01.405-.05.2-.07.34-.264.376-.46.016-.083.01-.146.04-.222.038-.103.11-.16.09-.293-.01-.062-.053-.12-.065-.187-.023-.114 0-.224 0-.337-.004-.2.016-.378-.08-.55-.38-.687-1.235-.928-1.974-.788-.18.034-.287.126-.442.207-.17.087-.14.165-.318.223-.08.026-.216.124-.215.224.002.115.006.05.013.17-.02.01-.02-.006-.03-.026M61.778-33.39c.018.072.007.127-.026.19-.053.1-.112.062-.165.128-.05.062-.1.276-.08.362-.168.058-.008.227-.014.35-.002.05-.04.105-.045.16-.01.12.017.267.068.37.097.2.268.414.435.545.19.148.366.572.61.63.176.043.383-.103.542-.142.18-.043.397.01.57-.053.223-.08.128-.337.29-.45.103-.074.286-.01.405-.05.2-.07.34-.264.376-.46.016-.083.01-.146.04-.222.038-.103.11-.16.09-.293-.01-.062-.053-.12-.065-.187-.022-.114.002-.224 0-.337-.003-.2.017-.378-.078-.55-.38-.687-1.236-.928-1.975-.788-.18.034-.287.126-.442.207-.17.087-.14.165-.318.223-.08.026-.216.124-.215.224 0 .115.005.05.012.17-.02.01-.02-.006-.03-.026M54.118-33.39c.018.072.007.127-.026.19-.053.1-.112.062-.165.128-.05.062-.1.276-.08.362-.168.058-.008.227-.014.35-.002.05-.04.105-.045.16-.01.12.017.267.068.37.097.2.268.414.435.545.19.148.366.572.61.63.176.043.383-.103.542-.142.18-.043.397.01.57-.053.223-.08.128-.337.29-.45.103-.074.286-.01.405-.05.2-.07.34-.264.376-.46.016-.083.01-.146.04-.222.038-.103.11-.16.09-.293-.01-.062-.053-.12-.065-.187-.022-.114.002-.224 0-.337-.003-.2.017-.378-.078-.55-.38-.687-1.236-.928-1.975-.788-.18.034-.287.126-.442.207-.17.087-.14.165-.318.223-.08.026-.216.124-.215.224 0 .115.005.05.012.17-.02.01-.02-.006-.03-.026M46.458-33.39c.018.072.007.127-.026.19-.053.1-.112.062-.165.128-.05.062-.1.276-.08.362-.168.058-.008.227-.014.35-.002.05-.04.105-.045.16-.01.12.017.267.068.37.097.2.268.414.435.545.19.148.366.572.61.63.176.043.383-.103.542-.142.18-.043.397.01.57-.053.223-.08.128-.337.29-.45.103-.074.286-.01.405-.05.2-.07.34-.264.376-.46.016-.083.01-.146.04-.222.038-.103.11-.16.09-.293-.01-.062-.053-.12-.065-.187-.022-.114.002-.224 0-.337-.003-.2.017-.378-.078-.55-.38-.687-1.236-.928-1.975-.788-.18.034-.287.126-.442.207-.17.087-.14.165-.318.223-.08.026-.216.124-.215.224 0 .115.005.05.012.17-.02.01-.02-.006-.03-.026M38.797-33.39c.018.072.007.127-.026.19-.052.1-.11.062-.164.128-.05.062-.1.276-.08.362-.168.058-.008.227-.014.35-.002.05-.04.105-.045.16-.01.12.017.267.068.37.097.2.268.414.435.545.19.148.365.572.608.63.177.043.384-.103.543-.142.18-.043.398.01.572-.053.222-.08.127-.337.288-.45.104-.074.287-.01.406-.05.2-.07.34-.264.376-.46.016-.083.01-.146.04-.222.038-.103.11-.16.09-.293-.01-.062-.053-.12-.065-.187-.022-.114.002-.224 0-.337-.003-.2.017-.378-.078-.55-.38-.687-1.237-.928-1.976-.788-.18.034-.287.126-.442.207-.17.087-.14.165-.318.223-.08.026-.216.124-.215.224 0 .115.004.05.01.17-.02.01-.02-.006-.03-.026M31.137-33.39c.018.072.007.127-.026.19-.052.1-.11.062-.164.128-.05.062-.1.276-.08.362-.168.058-.008.227-.014.35-.002.05-.04.105-.045.16-.01.12.017.267.068.37.097.2.268.414.435.545.19.148.365.572.608.63.177.043.384-.103.543-.142.18-.043.398.01.572-.053.222-.08.127-.337.288-.45.104-.074.287-.01.406-.05.2-.07.34-.264.376-.46.016-.083.01-.146.04-.222.038-.103.11-.16.09-.293-.01-.062-.053-.12-.065-.187-.022-.114.002-.224 0-.337-.003-.2.017-.378-.078-.55-.38-.687-1.237-.928-1.976-.788-.18.034-.287.126-.442.207-.17.087-.14.165-.318.223-.08.026-.216.124-.215.224 0 .115.004.05.01.17-.02.01-.02-.006-.03-.026M23.477-33.39c.018.072.007.127-.026.19-.052.1-.11.062-.164.128-.05.062-.1.276-.08.362-.168.058-.008.227-.014.35-.002.05-.04.105-.045.16-.01.12.017.267.068.37.097.2.268.414.435.545.19.148.365.572.608.63.177.043.384-.103.543-.142.18-.043.398.01.572-.053.222-.08.127-.337.288-.45.104-.074.287-.01.406-.05.2-.07.34-.264.376-.46.016-.083.01-.146.04-.222.038-.103.11-.16.09-.293-.01-.062-.053-.12-.065-.187-.022-.114.002-.224 0-.337-.003-.2.017-.378-.078-.55-.38-.687-1.237-.928-1.976-.788-.18.034-.287.126-.442.207-.17.087-.14.165-.318.223-.08.026-.216.124-.215.224 0 .115.004.05.01.17-.02.01-.02-.006-.03-.026M15.816-33.39c.018.072.007.127-.026.19-.053.1-.112.062-.165.128-.05.062-.1.276-.08.362-.168.058-.008.227-.014.35 0 .05-.04.105-.044.16-.01.12.017.267.068.37.097.2.268.414.435.545.19.148.364.572.607.63.177.043.384-.103.543-.142.18-.043.397.01.57-.053.223-.08.128-.337.29-.45.103-.074.286-.01.405-.05.2-.07.34-.264.376-.46.017-.083.01-.146.04-.222.04-.103.11-.16.09-.293-.01-.062-.052-.12-.064-.187-.022-.114.002-.224 0-.337-.003-.2.017-.378-.078-.55-.38-.687-1.236-.928-1.975-.788-.18.034-.287.126-.442.207-.17.087-.138.165-.317.223-.08.026-.216.124-.215.224 0 .115.005.05.012.17-.02.01-.02-.006-.03-.026M8.156-33.39c.018.072.007.127-.026.19-.053.1-.112.062-.165.128-.05.062-.1.276-.08.362-.168.058-.008.227-.014.35 0 .05-.04.105-.044.16-.01.12.017.267.068.37.097.2.268.414.435.545.19.148.364.572.607.63.177.043.384-.103.543-.142.18-.043.397.01.57-.053.223-.08.128-.337.29-.45.103-.074.286-.01.405-.05.2-.07.34-.264.376-.46.017-.083.01-.146.04-.222.04-.103.11-.16.09-.293-.01-.062-.052-.12-.064-.187-.022-.114.002-.224 0-.337-.003-.2.017-.378-.078-.55-.38-.687-1.236-.928-1.975-.788-.18.034-.287.126-.442.207-.17.087-.138.165-.317.223-.08.026-.216.124-.215.224 0 .115.005.05.012.17-.02.01-.02-.006-.03-.026M.495-33.39c.018.072.007.127-.026.19-.054.1-.113.062-.166.128-.05.062-.1.276-.08.362-.168.058-.01.227-.014.35-.002.05-.04.105-.045.16-.01.12.017.267.068.37.097.2.268.414.435.545.19.148.365.572.608.63.177.043.384-.103.543-.142.18-.043.396.01.57-.053.222-.08.127-.337.288-.45.104-.074.287-.01.406-.05.2-.07.34-.264.376-.46.016-.083.01-.146.04-.222.038-.103.11-.16.09-.293-.01-.062-.053-.12-.065-.187-.022-.114.002-.224 0-.337-.003-.2.017-.378-.078-.55-.38-.687-1.236-.928-1.975-.788-.18.034-.287.126-.442.207-.17.087-.14.165-.318.223-.08.026-.216.124-.215.224.003.117.006.053.013.17-.02.012-.02-.004-.03-.024M69.44-25.736c.017.072.006.127-.027.19-.053.1-.112.062-.165.128-.05.062-.1.276-.08.362-.168.058-.01.227-.014.35-.002.05-.04.105-.045.16-.01.12.016.267.067.37.097.2.268.414.435.545.19.147.365.57.608.63.177.042.384-.104.543-.143.18-.043.397.01.57-.053.223-.08.128-.337.29-.45.103-.074.286-.01.405-.05.2-.07.34-.264.376-.46.016-.083.01-.146.04-.222.038-.103.11-.16.09-.293-.01-.063-.053-.12-.065-.188-.023-.114 0-.224 0-.337-.004-.2.016-.38-.08-.55-.38-.688-1.235-.93-1.974-.79-.18.035-.287.127-.442.208-.17.088-.14.166-.318.224-.08.026-.216.124-.215.224.002.116.006.052.013.17-.02.01-.02-.005-.03-.025M61.778-25.736c.018.072.007.127-.026.19-.053.1-.112.062-.165.128-.05.062-.1.276-.08.362-.168.058-.008.227-.014.35-.002.05-.04.105-.045.16-.01.12.017.267.068.37.097.2.268.414.435.545.19.147.366.57.61.63.176.042.383-.104.542-.143.18-.043.397.01.57-.053.223-.08.128-.337.29-.45.103-.074.286-.01.405-.05.2-.07.34-.264.376-.46.016-.083.01-.146.04-.222.038-.103.11-.16.09-.293-.01-.063-.053-.12-.065-.188-.022-.114.002-.224 0-.337-.003-.2.017-.38-.078-.55-.38-.688-1.236-.93-1.975-.79-.18.035-.287.127-.442.208-.17.088-.14.166-.318.224-.08.026-.216.124-.215.224 0 .116.005.052.012.17-.02.01-.02-.005-.03-.025M54.118-25.736c.018.072.007.127-.026.19-.053.1-.112.062-.165.128-.05.062-.1.276-.08.362-.168.058-.008.227-.014.35-.002.05-.04.105-.045.16-.01.12.017.267.068.37.097.2.268.414.435.545.19.147.366.57.61.63.176.042.383-.104.542-.143.18-.043.397.01.57-.053.223-.08.128-.337.29-.45.103-.074.286-.01.405-.05.2-.07.34-.264.376-.46.016-.083.01-.146.04-.222.038-.103.11-.16.09-.293-.01-.063-.053-.12-.065-.188-.022-.114.002-.224 0-.337-.003-.2.017-.38-.078-.55-.38-.688-1.236-.93-1.975-.79-.18.035-.287.127-.442.208-.17.088-.14.166-.318.224-.08.026-.216.124-.215.224 0 .116.005.052.012.17-.02.01-.02-.005-.03-.025M46.458-25.736c.018.072.007.127-.026.19-.053.1-.112.062-.165.128-.05.062-.1.276-.08.362-.168.058-.008.227-.014.35-.002.05-.04.105-.045.16-.01.12.017.267.068.37.097.2.268.414.435.545.19.147.366.57.61.63.176.042.383-.104.542-.143.18-.043.397.01.57-.053.223-.08.128-.337.29-.45.103-.074.286-.01.405-.05.2-.07.34-.264.376-.46.016-.083.01-.146.04-.222.038-.103.11-.16.09-.293-.01-.063-.053-.12-.065-.188-.022-.114.002-.224 0-.337-.003-.2.017-.38-.078-.55-.38-.688-1.236-.93-1.975-.79-.18.035-.287.127-.442.208-.17.088-.14.166-.318.224-.08.026-.216.124-.215.224 0 .116.005.052.012.17-.02.01-.02-.005-.03-.025M38.797-25.736c.018.072.007.127-.026.19-.052.1-.11.062-.164.128-.05.062-.1.276-.08.362-.168.058-.008.227-.014.35-.002.05-.04.105-.045.16-.01.12.017.267.068.37.097.2.268.414.435.545.19.147.365.57.608.63.177.042.384-.104.543-.143.18-.043.398.01.572-.053.222-.08.127-.337.288-.45.104-.074.287-.01.406-.05.2-.07.34-.264.376-.46.016-.083.01-.146.04-.222.038-.103.11-.16.09-.293-.01-.063-.053-.12-.065-.188-.022-.114.002-.224 0-.337-.003-.2.017-.38-.078-.55-.38-.688-1.237-.93-1.976-.79-.18.035-.287.127-.442.208-.17.088-.14.166-.318.224-.08.026-.216.124-.215.224 0 .116.004.052.01.17-.02.01-.02-.005-.03-.025M31.137-25.736c.018.072.007.127-.026.19-.052.1-.11.062-.164.128-.05.062-.1.276-.08.362-.168.058-.008.227-.014.35-.002.05-.04.105-.045.16-.01.12.017.267.068.37.097.2.268.414.435.545.19.147.365.57.608.63.177.042.384-.104.543-.143.18-.043.398.01.572-.053.222-.08.127-.337.288-.45.104-.074.287-.01.406-.05.2-.07.34-.264.376-.46.016-.083.01-.146.04-.222.038-.103.11-.16.09-.293-.01-.063-.053-.12-.065-.188-.022-.114.002-.224 0-.337-.003-.2.017-.38-.078-.55-.38-.688-1.237-.93-1.976-.79-.18.035-.287.127-.442.208-.17.088-.14.166-.318.224-.08.026-.216.124-.215.224 0 .116.004.052.01.17-.02.01-.02-.005-.03-.025M23.477-25.736c.018.072.007.127-.026.19-.052.1-.11.062-.164.128-.05.062-.1.276-.08.362-.168.058-.008.227-.014.35-.002.05-.04.105-.045.16-.01.12.017.267.068.37.097.2.268.414.435.545.19.147.365.57.608.63.177.042.384-.104.543-.143.18-.043.398.01.572-.053.222-.08.127-.337.288-.45.104-.074.287-.01.406-.05.2-.07.34-.264.376-.46.016-.083.01-.146.04-.222.038-.103.11-.16.09-.293-.01-.063-.053-.12-.065-.188-.022-.114.002-.224 0-.337-.003-.2.017-.38-.078-.55-.38-.688-1.237-.93-1.976-.79-.18.035-.287.127-.442.208-.17.088-.14.166-.318.224-.08.026-.216.124-.215.224 0 .116.004.052.01.17-.02.01-.02-.005-.03-.025M15.816-25.736c.018.072.007.127-.026.19-.053.1-.112.062-.165.128-.05.062-.1.276-.08.362-.168.058-.008.227-.014.35 0 .05-.04.105-.044.16-.01.12.017.267.068.37.097.2.268.414.435.545.19.147.364.57.607.63.177.042.384-.104.543-.143.18-.043.397.01.57-.053.223-.08.128-.337.29-.45.103-.074.286-.01.405-.05.2-.07.34-.264.376-.46.017-.083.01-.146.04-.222.04-.103.11-.16.09-.293-.01-.063-.052-.12-.064-.188-.022-.114.002-.224 0-.337-.003-.2.017-.38-.078-.55-.38-.688-1.236-.93-1.975-.79-.18.035-.287.127-.442.208-.17.088-.138.166-.317.224-.08.026-.216.124-.215.224 0 .116.005.052.012.17-.02.01-.02-.005-.03-.025M8.156-25.736c.018.072.007.127-.026.19-.053.1-.112.062-.165.128-.05.062-.1.276-.08.362-.168.058-.008.227-.014.35 0 .05-.04.105-.044.16-.01.12.017.267.068.37.097.2.268.414.435.545.19.147.364.57.607.63.177.042.384-.104.543-.143.18-.043.397.01.57-.053.223-.08.128-.337.29-.45.103-.074.286-.01.405-.05.2-.07.34-.264.376-.46.017-.083.01-.146.04-.222.04-.103.11-.16.09-.293-.01-.063-.052-.12-.064-.188-.022-.114.002-.224 0-.337-.003-.2.017-.38-.078-.55-.38-.688-1.236-.93-1.975-.79-.18.035-.287.127-.442.208-.17.088-.138.166-.317.224-.08.026-.216.124-.215.224 0 .116.005.052.012.17-.02.01-.02-.005-.03-.025M.495-25.736c.018.072.007.127-.026.19-.054.1-.113.062-.166.128-.05.062-.1.276-.08.362-.168.058-.01.227-.014.35-.002.05-.04.105-.045.16-.01.12.017.267.068.37.097.2.268.414.435.545.19.147.365.57.608.63.177.042.384-.104.543-.143.18-.043.396.01.57-.053.222-.08.127-.337.288-.45.104-.074.287-.01.406-.05.2-.07.34-.264.376-.46.016-.083.01-.146.04-.222.038-.103.11-.16.09-.293-.01-.063-.053-.12-.065-.188-.022-.114.002-.224 0-.337-.003-.2.017-.38-.078-.55-.38-.688-1.236-.93-1.975-.79-.18.035-.287.127-.442.208-.17.088-.14.166-.318.224-.08.026-.216.124-.215.224 0 .116.005.052.012.17-.022.01-.022-.005-.03-.025M69.44-18.084c.017.072.006.127-.027.19-.053.1-.112.062-.165.128-.05.062-.1.276-.08.362-.168.058-.01.227-.014.35-.002.05-.04.105-.045.16-.01.12.016.267.067.37.097.2.268.414.435.545.19.15.365.573.608.632.177.042.384-.104.543-.143.18-.044.397.01.57-.054.223-.08.128-.337.29-.45.103-.074.286-.01.405-.05.2-.07.34-.264.376-.46.016-.083.01-.146.04-.222.038-.103.11-.16.09-.293-.01-.06-.053-.12-.065-.186-.023-.114 0-.224 0-.337-.004-.2.016-.38-.08-.55-.38-.688-1.235-.93-1.974-.79-.18.035-.287.127-.442.208-.17.088-.14.166-.318.224-.08.025-.216.123-.215.223.002.115.006.05.013.17-.02.01-.02-.006-.03-.026M61.778-18.084c.018.072.007.127-.026.19-.053.1-.112.062-.165.128-.05.062-.1.276-.08.362-.168.058-.008.227-.014.35-.002.05-.04.105-.045.16-.01.12.017.267.068.37.097.2.268.414.435.545.19.15.366.573.61.632.176.042.383-.104.542-.143.18-.044.397.01.57-.054.223-.08.128-.337.29-.45.103-.074.286-.01.405-.05.2-.07.34-.264.376-.46.016-.083.01-.146.04-.222.038-.103.11-.16.09-.293-.01-.06-.053-.12-.065-.186-.022-.114.002-.224 0-.337-.003-.2.017-.38-.078-.55-.38-.688-1.236-.93-1.975-.79-.18.035-.287.127-.442.208-.17.088-.14.166-.318.224-.08.025-.216.123-.215.223 0 .115.005.05.012.17-.02.01-.02-.006-.03-.026M54.118-18.084c.018.072.007.127-.026.19-.053.1-.112.062-.165.128-.05.062-.1.276-.08.362-.168.058-.008.227-.014.35-.002.05-.04.105-.045.16-.01.12.017.267.068.37.097.2.268.414.435.545.19.15.366.573.61.632.176.042.383-.104.542-.143.18-.044.397.01.57-.054.223-.08.128-.337.29-.45.103-.074.286-.01.405-.05.2-.07.34-.264.376-.46.016-.083.01-.146.04-.222.038-.103.11-.16.09-.293-.01-.06-.053-.12-.065-.186-.022-.114.002-.224 0-.337-.003-.2.017-.38-.078-.55-.38-.688-1.236-.93-1.975-.79-.18.035-.287.127-.442.208-.17.088-.14.166-.318.224-.08.025-.216.123-.215.223 0 .115.005.05.012.17-.02.01-.02-.006-.03-.026M46.458-18.084c.018.072.007.127-.026.19-.053.1-.112.062-.165.128-.05.062-.1.276-.08.362-.168.058-.008.227-.014.35-.002.05-.04.105-.045.16-.01.12.017.267.068.37.097.2.268.414.435.545.19.15.366.573.61.632.176.042.383-.104.542-.143.18-.044.397.01.57-.054.223-.08.128-.337.29-.45.103-.074.286-.01.405-.05.2-.07.34-.264.376-.46.016-.083.01-.146.04-.222.038-.103.11-.16.09-.293-.01-.06-.053-.12-.065-.186-.022-.114.002-.224 0-.337-.003-.2.017-.38-.078-.55-.38-.688-1.236-.93-1.975-.79-.18.035-.287.127-.442.208-.17.088-.14.166-.318.224-.08.025-.216.123-.215.223 0 .115.005.05.012.17-.02.01-.02-.006-.03-.026M38.797-18.084c.018.072.007.127-.026.19-.052.1-.11.062-.164.128-.05.062-.1.276-.08.362-.168.058-.008.227-.014.35-.002.05-.04.105-.045.16-.01.12.017.267.068.37.097.2.268.414.435.545.19.15.365.573.608.632.177.042.384-.104.543-.143.18-.044.398.01.572-.054.222-.08.127-.337.288-.45.104-.074.287-.01.406-.05.2-.07.34-.264.376-.46.016-.083.01-.146.04-.222.038-.103.11-.16.09-.293-.01-.06-.053-.12-.065-.186-.022-.114.002-.224 0-.337-.003-.2.017-.38-.078-.55-.38-.688-1.237-.93-1.976-.79-.18.035-.287.127-.442.208-.17.088-.14.166-.318.224-.08.025-.216.123-.215.223 0 .115.004.05.01.17-.02.01-.02-.006-.03-.026M31.137-18.084c.018.072.007.127-.026.19-.052.1-.11.062-.164.128-.05.062-.1.276-.08.362-.168.058-.008.227-.014.35-.002.05-.04.105-.045.16-.01.12.017.267.068.37.097.2.268.414.435.545.19.15.365.573.608.632.177.042.384-.104.543-.143.18-.044.398.01.572-.054.222-.08.127-.337.288-.45.104-.074.287-.01.406-.05.2-.07.34-.264.376-.46.016-.083.01-.146.04-.222.038-.103.11-.16.09-.293-.01-.06-.053-.12-.065-.186-.022-.114.002-.224 0-.337-.003-.2.017-.38-.078-.55-.38-.688-1.237-.93-1.976-.79-.18.035-.287.127-.442.208-.17.088-.14.166-.318.224-.08.025-.216.123-.215.223 0 .115.004.05.01.17-.02.01-.02-.006-.03-.026M23.477-18.084c.018.072.007.127-.026.19-.052.1-.11.062-.164.128-.05.062-.1.276-.08.362-.168.058-.008.227-.014.35-.002.05-.04.105-.045.16-.01.12.017.267.068.37.097.2.268.414.435.545.19.15.365.573.608.632.177.042.384-.104.543-.143.18-.044.398.01.572-.054.222-.08.127-.337.288-.45.104-.074.287-.01.406-.05.2-.07.34-.264.376-.46.016-.083.01-.146.04-.222.038-.103.11-.16.09-.293-.01-.06-.053-.12-.065-.186-.022-.114.002-.224 0-.337-.003-.2.017-.38-.078-.55-.38-.688-1.237-.93-1.976-.79-.18.035-.287.127-.442.208-.17.088-.14.166-.318.224-.08.025-.216.123-.215.223 0 .115.004.05.01.17-.02.01-.02-.006-.03-.026M15.816-18.084c.018.072.007.127-.026.19-.053.1-.112.062-.165.128-.05.062-.1.276-.08.362-.168.058-.008.227-.014.35 0 .05-.04.105-.044.16-.01.12.017.267.068.37.097.2.268.414.435.545.19.15.364.573.607.632.177.042.384-.104.543-.143.18-.044.397.01.57-.054.223-.08.128-.337.29-.45.103-.074.286-.01.405-.05.2-.07.34-.264.376-.46.017-.083.01-.146.04-.222.04-.103.11-.16.09-.293-.01-.06-.052-.12-.064-.186-.022-.114.002-.224 0-.337-.003-.2.017-.38-.078-.55-.38-.688-1.236-.93-1.975-.79-.18.035-.287.127-.442.208-.17.088-.138.166-.317.224-.08.025-.216.123-.215.223 0 .115.005.05.012.17-.02.01-.02-.006-.03-.026M8.156-18.084c.018.072.007.127-.026.19-.053.1-.112.062-.165.128-.05.062-.1.276-.08.362-.168.058-.008.227-.014.35 0 .05-.04.105-.044.16-.01.12.017.267.068.37.097.2.268.414.435.545.19.15.364.573.607.632.177.042.384-.104.543-.143.18-.044.397.01.57-.054.223-.08.128-.337.29-.45.103-.074.286-.01.405-.05.2-.07.34-.264.376-.46.017-.083.01-.146.04-.222.04-.103.11-.16.09-.293-.01-.06-.052-.12-.064-.186-.022-.114.002-.224 0-.337-.003-.2.017-.38-.078-.55-.38-.688-1.236-.93-1.975-.79-.18.035-.287.127-.442.208-.17.088-.138.166-.317.224-.08.025-.216.123-.215.223 0 .115.005.05.012.17-.02.01-.02-.006-.03-.026M.495-18.084c.018.072.007.127-.026.19-.054.1-.113.062-.166.128-.05.062-.1.276-.08.362-.168.058-.01.227-.014.35-.002.05-.04.105-.045.16-.01.12.017.267.068.37.097.2.268.414.435.545.19.15.365.573.608.632.177.042.384-.104.543-.143.18-.044.396.01.57-.054.222-.08.127-.337.288-.45.104-.074.287-.01.406-.05.2-.07.34-.264.376-.46.016-.083.01-.146.04-.222.038-.103.11-.16.09-.293-.01-.06-.053-.12-.065-.186-.022-.114.002-.224 0-.337-.003-.2.017-.38-.078-.55-.38-.688-1.236-.93-1.975-.79-.18.035-.287.127-.442.208-.17.088-.14.166-.318.224-.08.025-.216.123-.215.223.003.117.006.052.013.17-.02.01-.02-.005-.03-.025M69.44-10.43c.017.07.006.126-.027.19-.053.1-.112.06-.165.127-.05.062-.1.276-.08.362-.168.058-.01.227-.014.35-.002.05-.04.105-.045.16-.01.12.016.267.067.37.097.2.268.414.435.545.19.148.365.572.608.63.177.043.384-.103.543-.142.18-.043.397.01.57-.053.223-.08.128-.337.29-.45.103-.074.286-.01.405-.05.2-.07.34-.264.376-.46.016-.083.01-.146.04-.222.038-.103.11-.16.09-.293-.01-.062-.053-.12-.065-.187-.023-.114 0-.224 0-.337-.004-.2.016-.378-.08-.55-.38-.687-1.235-.928-1.974-.788-.18.034-.287.126-.442.207-.17.087-.14.165-.318.223-.08.026-.216.124-.215.224.002.115.006.05.013.17-.02.01-.02-.006-.03-.026M61.778-10.43c.018.07.007.126-.026.19-.053.1-.112.06-.165.127-.05.062-.1.276-.08.362-.168.057-.008.226-.014.35-.002.05-.04.104-.045.16-.01.12.017.266.068.37.097.198.268.413.435.544.19.148.366.572.61.63.176.043.383-.103.542-.142.18-.043.397.01.57-.053.223-.08.128-.338.29-.45.103-.075.286-.01.405-.052.2-.07.34-.263.376-.46.016-.082.01-.145.04-.22.038-.104.11-.16.09-.294-.01-.062-.053-.12-.065-.187-.022-.114.002-.224 0-.337-.003-.2.017-.38-.078-.55-.38-.688-1.236-.93-1.975-.79-.18.035-.287.127-.442.208-.17.088-.14.166-.318.224-.08.026-.216.124-.215.224 0 .115.005.05.012.17-.02.01-.02-.006-.03-.026M54.118-10.43c.018.07.007.126-.026.19-.053.1-.112.06-.165.127-.05.062-.1.276-.08.362-.168.057-.008.226-.014.35-.002.05-.04.104-.045.16-.01.12.017.266.068.37.097.198.268.413.435.544.19.148.366.572.61.63.176.043.383-.103.542-.142.18-.043.397.01.57-.053.223-.08.128-.338.29-.45.103-.075.286-.01.405-.052.2-.07.34-.263.376-.46.016-.082.01-.145.04-.22.038-.104.11-.16.09-.294-.01-.062-.053-.12-.065-.187-.022-.114.002-.224 0-.337-.003-.2.017-.38-.078-.55-.38-.688-1.236-.93-1.975-.79-.18.035-.287.127-.442.208-.17.088-.14.166-.318.224-.08.026-.216.124-.215.224 0 .115.005.05.012.17-.02.01-.02-.006-.03-.026M46.458-10.43c.018.07.007.126-.026.19-.053.1-.112.06-.165.127-.05.062-.1.276-.08.362-.168.057-.008.226-.014.35-.002.05-.04.104-.045.16-.01.12.017.266.068.37.097.198.268.413.435.544.19.148.366.572.61.63.176.043.383-.103.542-.142.18-.043.397.01.57-.053.223-.08.128-.338.29-.45.103-.075.286-.01.405-.052.2-.07.34-.263.376-.46.016-.082.01-.145.04-.22.038-.104.11-.16.09-.294-.01-.062-.053-.12-.065-.187-.022-.114.002-.224 0-.337-.003-.2.017-.38-.078-.55-.38-.688-1.236-.93-1.975-.79-.18.035-.287.127-.442.208-.17.088-.14.166-.318.224-.08.026-.216.124-.215.224 0 .115.005.05.012.17-.02.01-.02-.006-.03-.026M38.797-10.43c.018.07.007.126-.026.19-.052.1-.11.06-.164.127-.05.062-.1.276-.08.362-.168.057-.008.226-.014.35-.002.05-.04.104-.045.16-.01.12.017.266.068.37.097.198.268.413.435.544.19.148.365.572.608.63.177.043.384-.103.543-.142.18-.043.398.01.572-.053.222-.08.127-.338.288-.45.104-.075.287-.01.406-.052.2-.07.34-.263.376-.46.016-.082.01-.145.04-.22.038-.104.11-.16.09-.294-.01-.062-.053-.12-.065-.187-.022-.114.002-.224 0-.337-.003-.2.017-.38-.078-.55-.38-.688-1.237-.93-1.976-.79-.18.035-.287.127-.442.208-.17.088-.14.166-.318.224-.08.026-.216.124-.215.224 0 .115.004.05.01.17-.02.01-.02-.006-.03-.026M31.137-10.43c.018.07.007.126-.026.19-.052.1-.11.06-.164.127-.05.062-.1.276-.08.362-.168.057-.008.226-.014.35-.002.05-.04.104-.045.16-.01.12.017.266.068.37.097.198.268.413.435.544.19.148.365.572.608.63.177.043.384-.103.543-.142.18-.043.398.01.572-.053.222-.08.127-.338.288-.45.104-.075.287-.01.406-.052.2-.07.34-.263.376-.46.016-.082.01-.145.04-.22.038-.104.11-.16.09-.294-.01-.062-.053-.12-.065-.187-.022-.114.002-.224 0-.337-.003-.2.017-.38-.078-.55-.38-.688-1.237-.93-1.976-.79-.18.035-.287.127-.442.208-.17.088-.14.166-.318.224-.08.026-.216.124-.215.224 0 .115.004.05.01.17-.02.01-.02-.006-.03-.026M23.477-10.43c.018.07.007.126-.026.19-.052.1-.11.06-.164.127-.05.062-.1.276-.08.362-.168.057-.008.226-.014.35-.002.05-.04.104-.045.16-.01.12.017.266.068.37.097.198.268.413.435.544.19.148.365.572.608.63.177.043.384-.103.543-.142.18-.043.398.01.572-.053.222-.08.127-.338.288-.45.104-.075.287-.01.406-.052.2-.07.34-.263.376-.46.016-.082.01-.145.04-.22.038-.104.11-.16.09-.294-.01-.062-.053-.12-.065-.187-.022-.114.002-.224 0-.337-.003-.2.017-.38-.078-.55-.38-.688-1.237-.93-1.976-.79-.18.035-.287.127-.442.208-.17.088-.14.166-.318.224-.08.026-.216.124-.215.224 0 .115.004.05.01.17-.02.01-.02-.006-.03-.026M15.816-10.43c.018.07.007.126-.026.19-.053.1-.112.06-.165.127-.05.062-.1.276-.08.362-.168.057-.008.226-.014.35 0 .05-.04.104-.044.16-.01.12.017.266.068.37.097.198.268.413.435.544.19.148.364.572.607.63.177.043.384-.103.543-.142.18-.043.397.01.57-.053.223-.08.13-.337.29-.45.104-.074.287-.01.406-.05.2-.07.34-.264.376-.46.016-.083.01-.146.04-.222.038-.103.11-.16.09-.293-.01-.062-.053-.12-.065-.187-.022-.114.002-.224 0-.337-.003-.2.017-.378-.078-.55-.38-.687-1.237-.928-1.976-.788-.18.034-.287.126-.442.207-.17.087-.14.165-.318.223-.08.026-.216.124-.215.224 0 .115.004.05.01.17-.02.01-.02-.006-.03-.026M8.156-10.43c.018.07.007.126-.026.19-.053.1-.112.06-.165.127-.05.063-.1.277-.08.363-.168.058-.01.227-.014.35-.002.05-.04.105-.044.16-.01.12.017.267.068.37.097.2.268.414.435.545.19.148.364.572.607.63.177.043.384-.104.543-.142.18-.043.397.01.57-.053.223-.08.128-.337.29-.45.103-.074.286-.01.405-.05.2-.07.34-.264.376-.46.017-.083.01-.146.04-.222.04-.103.11-.16.09-.293-.01-.062-.052-.12-.064-.187-.022-.114.002-.224 0-.337-.003-.2.017-.378-.078-.55-.38-.687-1.236-.928-1.975-.788-.18.034-.287.126-.442.207-.17.087-.138.165-.317.223-.08.026-.216.124-.215.224 0 .115.005.05.012.17-.02.01-.02-.006-.03-.026M.495-10.43c.018.07.007.126-.026.19-.054.1-.113.06-.166.127-.05.063-.1.277-.08.363-.168.058-.01.227-.014.35-.002.05-.04.105-.045.16-.01.12.017.267.068.37.097.2.268.414.435.545.19.148.365.572.608.63.178.043.384-.104.543-.142.18-.043.397.01.57-.053.223-.08.128-.337.29-.45.103-.074.286-.01.405-.05.2-.07.34-.264.376-.46.017-.083.01-.145.04-.22.04-.104.11-.16.09-.294-.01-.062-.052-.12-.064-.187-.022-.115.002-.225 0-.338-.003-.2.017-.38-.078-.55-.38-.688-1.236-.93-1.975-.79-.18.035-.287.127-.442.208-.17.088-.138.166-.317.224-.08.026-.216.124-.215.224 0 .115.005.05.012.17-.02.01-.02-.006-.03-.026"/></g><g fill="#fff"><path d="M69.44-2.778c.017.072.007.127-.027.19-.052.1-.113.063-.165.128-.05.062-.1.276-.08.362-.168.058-.01.227-.014.35-.002.05-.04.105-.045.16-.01.12.016.267.067.37.097.2.268.414.435.545.19.148.365.572.608.63.177.043.384-.103.543-.142.18-.043.397.01.57-.053.223-.08.128-.337.29-.45.103-.074.286-.01.405-.05.2-.07.34-.264.376-.46.016-.083.01-.146.04-.222.037-.103.11-.16.09-.293-.01-.062-.052-.12-.065-.187-.022-.114 0-.224 0-.337-.004-.2.016-.38-.08-.55-.38-.688-1.235-.93-1.974-.79-.18.035-.287.127-.442.208-.17.09-.14.167-.318.225-.08.026-.215.124-.215.224.003.114.006.05.013.168-.02.01-.02-.005-.03-.025M61.778-2.778c.018.072.007.127-.026.19-.052.1-.112.063-.165.128-.05.062-.1.276-.08.362-.168.058-.01.227-.014.35-.002.05-.04.105-.045.16-.01.12.017.267.068.37.097.2.268.414.435.545.19.148.366.572.61.63.177.043.383-.103.543-.142.18-.043.397.01.57-.053.223-.08.128-.337.29-.45.103-.074.286-.01.405-.05.2-.07.34-.264.376-.46.016-.083.01-.146.04-.222.038-.103.11-.16.09-.293-.01-.062-.053-.12-.065-.187-.023-.114 0-.224 0-.337-.004-.2.016-.38-.08-.55-.38-.688-1.235-.93-1.974-.79-.18.035-.287.127-.442.208-.17.09-.14.167-.318.225-.08.028-.216.125-.215.225.002.115.006.05.013.17-.02.01-.02-.006-.03-.026M54.118-2.778c.018.072.007.127-.026.19-.052.1-.112.063-.165.128-.05.062-.1.276-.08.362-.168.058-.01.227-.014.35-.002.05-.04.105-.045.16-.01.12.017.267.068.37.097.2.268.414.435.545.19.148.366.572.61.63.177.043.383-.103.542-.142.18-.043.397.01.57-.053.223-.08.128-.337.29-.45.103-.074.286-.01.405-.05.2-.07.34-.264.376-.46.016-.083.01-.146.04-.222.038-.103.11-.16.09-.293-.01-.062-.053-.12-.065-.187-.022-.114.002-.224 0-.337-.003-.2.017-.38-.078-.55-.38-.688-1.236-.93-1.975-.79-.18.035-.287.127-.442.208-.17.09-.14.167-.318.225-.08.028-.215.125-.214.225.002.115.006.05.013.17-.02.01-.02-.006-.03-.026M46.458-2.778c.018.072.007.127-.026.19-.053.1-.112.062-.165.128-.05.062-.1.276-.08.362-.168.058-.01.227-.014.35-.002.05-.04.105-.045.16-.01.12.017.267.068.37.097.2.268.414.435.545.19.148.366.572.61.63.176.043.383-.103.542-.142.18-.043.397.01.57-.053.223-.08.128-.337.29-.45.103-.074.286-.01.405-.05.2-.07.34-.264.376-.46.016-.083.01-.146.04-.222.038-.103.11-.16.09-.293-.01-.062-.053-.12-.065-.187-.022-.114.002-.224 0-.337-.003-.2.017-.38-.078-.55-.38-.688-1.236-.93-1.975-.79-.18.035-.287.127-.442.208-.17.09-.14.167-.318.225-.08.028-.216.125-.215.225 0 .115.005.05.012.17-.02.01-.02-.006-.03-.026M38.797-2.778c.018.072.007.127-.026.19-.052.1-.11.062-.164.128-.05.062-.1.276-.08.362-.168.058-.01.227-.014.35-.002.05-.04.105-.045.16-.01.12.017.267.068.37.097.2.268.414.435.545.19.148.365.572.608.63.178.043.384-.103.544-.142.18-.043.397.01.57-.053.223-.08.128-.337.29-.45.103-.074.286-.01.405-.05.2-.07.34-.264.376-.46.016-.083.01-.146.04-.222.038-.103.11-.16.09-.293-.01-.062-.053-.12-.065-.187-.022-.114.002-.224 0-.337-.003-.2.017-.38-.078-.55-.38-.688-1.236-.93-1.975-.79-.18.035-.287.127-.442.208-.17.09-.14.167-.318.225-.08.028-.216.125-.215.225 0 .115.005.05.012.17-.02.01-.02-.006-.03-.026M31.137-2.778c.018.072.007.127-.026.19-.052.1-.11.062-.164.128-.05.062-.1.276-.08.362-.168.058-.01.227-.014.35-.002.05-.04.105-.045.16-.01.12.017.267.068.37.097.2.268.414.435.545.19.148.365.572.608.63.177.043.384-.103.543-.142.18-.043.398.01.572-.053.222-.08.127-.337.288-.45.104-.074.287-.01.406-.05.2-.07.34-.264.376-.46.016-.083.01-.146.04-.222.038-.103.11-.16.09-.293-.01-.062-.053-.12-.065-.187-.022-.114.002-.224 0-.337-.003-.2.017-.38-.078-.55-.38-.688-1.237-.93-1.976-.79-.18.035-.287.127-.442.208-.17.09-.14.167-.318.225-.08.028-.215.125-.214.225 0 .115.005.05.012.17-.02.01-.02-.006-.03-.026M23.477-2.778c.018.072.007.127-.026.19-.052.1-.11.062-.164.128-.05.062-.1.276-.08.362-.168.058-.01.227-.014.35-.002.05-.04.105-.045.16-.01.12.017.267.068.37.097.2.268.414.435.545.19.148.365.572.608.63.177.043.384-.103.543-.142.18-.043.398.01.572-.053.222-.08.127-.337.288-.45.104-.074.287-.01.406-.05.2-.07.34-.264.376-.46.016-.083.01-.146.04-.222.038-.103.11-.16.09-.293-.01-.062-.053-.12-.065-.187-.022-.114.002-.224 0-.337-.003-.2.017-.38-.078-.55-.38-.688-1.237-.93-1.976-.79-.18.035-.287.127-.442.208-.17.09-.14.167-.318.225-.08.026-.216.124-.215.224 0 .114.004.05.01.168-.02.01-.02-.005-.03-.025M15.816-2.778c.018.072.007.127-.026.19-.053.1-.112.062-.165.128-.05.062-.1.276-.08.362-.168.058-.01.227-.014.35 0 .05-.04.105-.044.16-.01.12.017.267.068.37.097.2.268.414.435.545.19.148.364.572.607.63.177.043.384-.103.543-.142.18-.043.397.01.57-.053.223-.08.128-.337.29-.45.103-.074.286-.01.405-.05.2-.07.34-.264.376-.46.017-.083.01-.146.04-.222.04-.103.11-.16.09-.293-.01-.062-.052-.12-.064-.187-.022-.114.002-.224 0-.337-.003-.2.017-.38-.078-.55-.38-.688-1.236-.93-1.975-.79-.18.035-.287.127-.442.208-.17.09-.138.167-.317.225-.08.026-.216.124-.215.224 0 .114.005.05.012.168-.02.012-.02-.004-.03-.024M8.156-2.778c.018.072.007.127-.026.19-.053.1-.112.063-.165.128-.05.062-.1.276-.08.362-.168.058-.01.227-.014.35-.002.05-.04.105-.044.16-.01.12.017.267.068.37.097.2.268.414.435.545.19.148.364.572.607.63.177.043.384-.103.543-.142.18-.043.397.01.57-.053.223-.08.128-.337.29-.45.103-.074.286-.01.405-.05.2-.07.34-.264.376-.46.017-.083.01-.146.04-.222.04-.103.11-.16.09-.293-.01-.062-.052-.12-.064-.187-.022-.114.002-.224 0-.337-.003-.2.017-.38-.078-.55-.38-.688-1.236-.93-1.975-.79-.18.037-.286.13-.44.21-.17.088-.14.166-.32.224-.08.026-.215.123-.214.223 0 .115.004.05.01.17-.02.01-.02-.006-.03-.026M.495-2.778c.018.072.008.127-.026.19-.053.1-.114.063-.166.128-.05.063-.1.276-.08.362-.168.058-.01.227-.014.35-.002.05-.04.105-.045.16-.01.12.017.267.068.37.097.2.268.414.435.545.19.148.365.572.608.63.178.043.384-.103.543-.142.18-.043.397.01.57-.052.223-.08.128-.337.29-.45.103-.074.286-.01.405-.05.2-.07.34-.264.376-.46.017-.083.01-.146.04-.222.038-.102.11-.16.09-.292-.01-.062-.05-.12-.064-.187-.02-.113.002-.223 0-.336-.003-.2.017-.38-.078-.55-.38-.688-1.236-.93-1.975-.79-.18.036-.286.128-.442.21-.17.087-.138.165-.317.223-.08.026-.215.123-.215.223.002.115.005.05.012.17-.02.01-.022-.006-.03-.026"/></g></pattern></defs><path fill="#fff" d="M2.242 4.15c0-1.03.835-1.864 1.866-1.864 1.03 0 1.868.833 1.868 1.865 0 1.03-.838 1.866-1.868 1.866-1.03 0-1.866-.835-1.866-1.865zM0 4.15C0 6.416 1.843 8.26 4.108 8.26c2.267 0 4.107-1.844 4.107-4.107 0-2.266-1.84-4.106-4.107-4.106C1.843.044 0 1.884 0 4.15"/><path fill="#fff" d="M14.203.188h2.37l2.862 7.86h-2.51l-.332-1.122h-2.5l-.352 1.12h-2.433L14.203.19zM16.11 5.24l-.707-2.422h-.02L14.62 5.24h1.49zM19.907.188h3.446l1.124 4.623h.022L25.62.19h3.446v7.86h-2.29V3.004h-.02L25.39 8.048h-1.806L22.22 3.005h-.023v5.043h-2.29V.188zM30.257.188h6.508V2.2H32.68v.98h3.71v1.872h-3.71v.98h4.206v2.015h-6.628V.187zM37.953.188h4.615c1.375 0 2.565.757 2.565 2.246 0 .813-.374 1.672-1.178 1.97.66.253 1.068.98 1.156 1.96.034.385.045 1.322.265 1.684h-2.422c-.122-.393-.167-.802-.2-1.212-.064-.75-.13-1.53-1.09-1.53h-1.288V8.05h-2.423V.188zm2.423 3.433h1.268c.45 0 1.066-.072 1.066-.78 0-.495-.275-.78-1.2-.78h-1.134v1.56zM46.058.188h2.423v7.86H46.06V.187zM54.625 3.115c-.043-.285-.265-1.154-1.266-1.154-1.135 0-1.5 1.1-1.5 2.158s.364 2.157 1.5 2.157c.814 0 1.132-.572 1.275-1.31h2.38c0 1.586-1.29 3.27-3.59 3.27-2.545 0-3.986-1.792-3.986-4.117C49.44 1.64 51 0 53.423 0c2.158.01 3.347 1.146 3.557 3.115h-2.355zM60.15.188h2.37l2.862 7.86h-2.51l-.332-1.122h-2.5l-.35 1.122h-2.434L60.15.188zm1.907 5.053l-.705-2.422h-.02L60.57 5.24h1.487zM65.88.188h2.475l2.29 4.203h.023V.19h2.29v7.86h-2.356L68.19 3.753h-.022v4.294h-2.29V.188zM78.135.188h4.053c2.136 0 2.884 1.562 2.884 2.684 0 1.905-1.277 2.8-3.083 2.8h-1.432v2.376h-2.423V.188zM80.558 3.8h.935c.63 0 1.288-.046 1.288-.838 0-.714-.548-.76-1.143-.76h-1.08V3.8zM92.967 5.01c0 2.178-1.178 3.226-3.578 3.226S85.8 7.188 85.8 5.01V.188h2.42V4.47c0 .804 0 1.805 1.18 1.805 1.145 0 1.145-1 1.145-1.805V.188h2.422V5.01zM94.133.188h4.307c2.07 0 2.51 1.166 2.51 1.97 0 .792-.385 1.222-.967 1.542.703.24 1.363.803 1.363 1.96 0 1.574-1.363 2.388-2.754 2.388h-4.46V.188zm2.426 3.06h1.272c.51 0 .828-.14.828-.65 0-.396-.33-.54-.828-.54H96.56v1.19zm0 2.93h1.417c.508 0 .947-.145.947-.75 0-.462-.273-.714-.846-.714h-1.52v1.463zM102.238.188h2.424v5.845h3.48v2.015h-5.903V.188zM109.12.188h2.42v7.86h-2.42V.187zM117.688 3.117c-.045-.287-.264-1.158-1.27-1.158-1.133 0-1.496 1.1-1.496 2.158 0 1.058.363 2.157 1.496 2.157.816 0 1.135-.574 1.28-1.31h2.38c0 1.588-1.29 3.27-3.592 3.27-2.543 0-3.984-1.794-3.984-4.117 0-2.477 1.562-4.118 3.984-4.118 2.156.01 3.348 1.142 3.557 3.117h-2.355zM124.646.188h3.445l1.126 4.623h.02L130.36.19h3.445v7.86h-2.29v-5.04h-.02l-1.367 5.04h-1.805l-1.365-5.04h-.023v5.04h-2.29V.188zM134.996.188h6.508V2.2h-4.086v.98h3.71v1.872h-3.71v.98h4.207v2.015h-6.63V.187zM142.693.188h3.973c2.623 0 3.547 1.936 3.547 3.918 0 2.412-1.275 3.94-4.02 3.94h-3.5V.19zm2.422 5.845h.945c1.512 0 1.73-1.222 1.73-1.96 0-.494-.154-1.87-1.904-1.87h-.77v3.83zM151.205.188h2.424v7.86h-2.425V.187zM156.994.188h2.367l2.866 7.86h-2.51l-.332-1.124h-2.5l-.35 1.123H154.1l2.894-7.86zM158.9 5.24l-.703-2.422h-.02l-.763 2.423h1.486zM162.844.5h-.502v1.38h-.316V.5h-.5V.243h1.318V.5zm1.242.903l.443-1.16h.456V1.88h-.295V.6h-.007l-.488 1.28h-.223l-.49-1.28h-.006v1.28h-.3V.243h.462l.448 1.16z"/></svg>