<!DOCTYPE svg PUBLIC "-//W3C//DTD SVG 1.1//EN" "http://www.w3.org/Graphics/SVG/1.1/DTD/svg11.dtd" [
	<!ENTITY ns_flows "http://ns.adobe.com/Flows/1.0/">
]><svg xmlns="http://www.w3.org/2000/svg" width="260" height="124" viewBox="0 0 260 124" overflow="visible"><path fill="#F06D53" d="M0 99.74h4.602v23.85H0zM10.736 99.74h3.24l13.286 15.536V99.74h4.6v23.85h-3.236l-13.288-15.537v15.536h-4.602zM42.604 103.827v4.94h7.324v4.09h-7.324v10.73h-4.602V99.74h14.31v4.087zM56.407 99.74h4.6v23.85h-4.6zM67.145 99.74h3.236l13.29 15.536V99.74h4.6v23.85h-3.237l-13.287-15.537v15.536h-4.6zM94.412 99.74h4.602v23.85h-4.602zM120.48 99.74v4.087h-6.302v19.762h-4.6v-19.763h-6.305V99.74zM129.346 103.827v4.94h7.324v4.09h-7.324v6.643h10.05v4.088h-14.65V99.74h14.31v4.087zM156.954 111.665c0 4.633 3.542 8.178 8.144 8.178 2.18 0 3.95-.752 5.314-1.84v-5.146h-6.134v-4.09h10.733v10.6c-2.11 2.688-5.654 4.563-10.016 4.563-7.43 0-12.642-5.416-12.642-12.266s5.146-12.267 12.574-12.267c3.54 0 6.574 1.33 8.722 3.407l-2.964 3.135c-1.432-1.433-3.442-2.454-5.793-2.454-4.53 0-7.936 3.647-7.936 8.18M183.37 121.477c-1.978-1.77-3.068-4.293-3.068-7.938v-13.8h4.6v14.14c0 2.18.578 3.508 1.567 4.43 1.02.986 2.452 1.533 4.053 1.533s3.032-.547 4.054-1.533c.99-.922 1.568-2.25 1.568-4.43V99.74h4.6v13.8c0 3.645-1.09 6.166-3.065 7.937-1.84 1.635-4.464 2.452-7.156 2.452-2.692 0-5.317-.818-7.155-2.453"/><path fill="#F06D53" d="M211.316 103.827v4.94h7.325v4.09h-7.324v6.643h10.05v4.088h-14.65V99.74h14.31v4.087zM227.27 117.217c1.362 1.5 3.44 2.625 5.62 2.625 2.046 0 3.478-1.26 3.478-3 0-3.064-4.43-3.44-7.633-5.314-1.873-1.09-3.372-2.725-3.372-5.418 0-4.258 3.92-6.71 7.87-6.71 2.418 0 4.668.577 6.916 2.247l-2.386 3.408c-.955-.887-2.556-1.568-4.12-1.568-1.74 0-3.684.75-3.684 2.59 0 3.85 11.006 2.658 11.006 10.7 0 4.223-3.782 7.153-8.075 7.153-3.202 0-6.165-1.33-8.62-3.578l3-3.135zM260.053 99.74v4.087h-6.305v19.762h-4.6v-19.763h-6.302V99.74z"/><path fill="#fff" d="M194.134 28.057l-1.832-1.832-2.986-2.986-2.59-2.592-11.408-11.406-2.59-2.59-2.986-2.987-1.832-1.832L166.078 0H149.74l-1.833 1.833-1.832 1.832-2.986 2.986-2.593 2.592-11.405 11.406-11.404-11.406-2.59-2.59-2.988-2.987-1.832-1.832L108.445 0H92.106l-1.83 1.833-1.833 1.832-2.985 2.986-2.592 2.592L71.46 20.648l-2.59 2.59-2.985 2.987-1.832 1.832-1.833 1.833v16.335l1.833 1.833 1.832 1.83 2.986 2.987 2.59 2.59 11.407 11.407 2.592 2.59 2.984 2.987 1.832 1.833 1.832 1.832h16.339l1.832-1.832 1.832-1.832 2.986-2.985 2.592-2.59 11.405-11.407 11.405 11.406 2.592 2.59 2.986 2.987 1.832 1.833 1.832 1.832h16.337l1.834-1.832 1.833-1.832 2.985-2.985 2.59-2.59 11.407-11.407 2.59-2.59 2.987-2.987 1.832-1.832 1.83-1.832V29.89l-1.83-1.833zm-33.24-24.392h3.666l.76.76 4.817 4.817 2.59 2.59 11.407 11.407 2.59 2.59 4.82 4.818-4.82 4.82-2.59 2.59-4.82 4.818-2.59 2.59-11.406 11.407-4.817-4.818 11.406-11.406 2.59-2.592 4.82-4.82 2.59-2.59-2.59-2.59L167.91 16.65l-2.593-2.59-4.817-4.82-2.592-2.59-2.986-2.987h5.973zm-2.986 45.8l-11.406-11.407 11.406-11.406 11.406 11.406-11.406 11.406zm-26.224-26.226l11.406-11.407 2.59-2.59 4.82-4.82 4.817 4.82 2.59 2.59 4.82 4.82 2.59 2.59 11.406 11.405-4.818 4.82L160.5 24.06l-2.592-2.59-4.817-4.818-2.59-2.592-2.592 2.592-11.406 11.405-2.59 2.59-4.82 4.82-2.59 2.59-4.818 4.82-2.59 2.59-11.407 11.406-4.817-4.818 11.405-11.406 2.59-2.592 4.82-4.818 2.59-2.59 4.818-4.82 2.59-2.59zm-31.407 26.224L88.87 38.058l11.407-11.406 11.406 11.406-11.406 11.406zm2.987-45.8h3.664l.76.76 4.816 4.818 2.592 2.59 11.406 11.407-4.818 4.817-11.406-11.405-2.59-2.59-4.818-4.82-2.592-2.59-2.986-2.987h5.972zm-37.38 31.408v-3.665l.76-.76 4.817-4.817 2.593-2.59L85.46 11.832l2.59-2.59 4.817-4.82 4.82 4.82 2.59 2.59 4.818 4.82 2.59 2.59 11.407 11.406-4.818 4.817L102.87 24.06l-2.593-2.59-4.818-4.818-2.593-2.59-2.59 2.59L78.87 28.057l-2.59 2.592-4.82 4.817-2.59 2.59-2.985 2.987v-5.972zm31.407 37.38h-3.663l-.76-.76-4.817-4.818-2.59-2.59-11.407-11.407-2.592-2.59-4.816-4.82 4.817-4.818 2.593-2.592 4.818-4.818 2.593-2.59 11.404-11.407 4.82 4.818L86.28 35.468l-2.59 2.59-4.82 4.82-2.59 2.59 2.59 2.59 11.406 11.407 2.59 2.59 4.82 4.82 2.59 2.59 2.987 2.987H97.29zm29.212-19.575l-11.406 11.406-2.592 2.59-4.817 4.82-4.817-4.82-2.592-2.59-4.818-4.82-2.592-2.59L81.46 45.467l4.82-4.818 11.406 11.405 2.59 2.59 4.82 4.82 2.59 2.59 2.59-2.59 11.407-11.407 2.59-2.59 4.82-4.82 2.59-2.59 4.818-4.82 2.593-2.59L150.5 19.243l4.817 4.818-11.405 11.407-2.592 2.59-4.818 4.82-2.59 2.59-4.82 4.82-2.59 2.59zm28.42 19.574h-3.663l-.76-.758-4.82-4.818-2.59-2.592-11.406-11.405 4.818-4.82 11.406 11.407 2.592 2.59 4.817 4.82 2.59 2.59 2.987 2.987h-5.972zm37.38-31.406v3.665l-.76.757-4.817 4.82-2.59 2.59-11.407 11.406-2.59 2.59-4.82 4.82-4.817-4.82-2.59-2.59-4.818-4.82-2.59-2.59-11.407-11.406 4.818-4.818 11.405 11.405 2.59 2.59 4.82 4.82 2.59 2.59 2.593-2.59 11.405-11.407 2.59-2.59 4.82-4.82 2.59-2.59 2.987-2.986v5.972z"/></svg>